<?xml version="1.0" standalone="no"?>
<!DOCTYPE svg PUBLIC "-//W3C//DTD SVG 20010904//EN"
 "http://www.w3.org/TR/2001/REC-SVG-20010904/DTD/svg10.dtd">
<svg version="1.0" xmlns="http://www.w3.org/2000/svg"
 width="3000.000000pt" height="4000.000000pt" viewBox="0 0 3000.000000 4000.000000"
 preserveAspectRatio="xMidYMid meet">

<g transform="translate(0.000000,4000.000000) scale(0.100000,-0.100000)"
fill="#000000" stroke="none">
<path d="M16055 34549 c-4 -5 -10 -7 -15 -4 -5 3 -12 0 -17 -7 -8 -13 -21 -15
-100 -19 -24 -1 -43 -5 -43 -10 0 -5 -17 -9 -38 -9 -28 0 -45 -7 -63 -26 -22
-23 -24 -24 -36 -8 -12 17 -14 16 -36 -4 -13 -12 -28 -22 -34 -22 -6 0 -28
-16 -47 -35 -20 -19 -43 -35 -51 -35 -8 0 -18 -6 -22 -14 -4 -8 -17 -16 -28
-18 -12 -2 -19 -10 -17 -21 3 -19 -14 -23 -21 -4 -3 9 -7 9 -19 0 -8 -7 -17
-11 -20 -8 -3 3 -21 -13 -42 -35 -28 -31 -35 -45 -30 -64 3 -13 1 -27 -5 -30
-6 -4 -11 0 -11 9 0 25 -38 0 -46 -31 -4 -14 -17 -29 -30 -34 -13 -5 -37 -29
-53 -52 -55 -79 -72 -98 -91 -98 -10 0 -31 -10 -47 -23 -43 -35 -111 -59 -134
-46 -11 5 -24 7 -29 4 -5 -3 -11 -1 -15 5 -3 5 -22 10 -41 10 -19 0 -34 5 -34
11 0 8 -4 8 -12 1 -10 -7 -19 -1 -36 26 -27 43 -74 76 -129 91 -22 6 -48 20
-58 31 -10 11 -22 20 -26 20 -5 0 -25 11 -45 25 -21 14 -49 28 -63 32 -14 3
-28 10 -31 14 -3 4 -12 9 -20 11 -8 2 -21 11 -28 21 -15 19 -150 86 -217 107
-22 7 -47 15 -55 18 -20 8 -38 11 -82 14 -21 2 -43 9 -50 16 -7 7 -21 12 -32
12 -12 1 -39 8 -61 16 -45 16 -216 52 -285 60 -25 2 -88 6 -140 8 -52 2 -99 5
-105 6 -5 1 -12 1 -15 0 -3 -1 -22 -4 -43 -5 -21 -2 -57 -13 -80 -23 -23 -11
-71 -23 -107 -27 -70 -7 -224 -57 -251 -81 -8 -7 -23 -14 -32 -14 -8 0 -22 -6
-29 -13 -7 -8 -25 -17 -39 -20 -23 -6 -93 -36 -129 -56 -43 -24 -79 -40 -115
-51 -22 -7 -61 -26 -86 -42 -25 -15 -55 -28 -65 -28 -11 0 -31 -8 -44 -17 -14
-10 -25 -16 -25 -14 0 12 -96 -43 -105 -60 -8 -14 -17 -18 -31 -14 -10 4 -19
2 -19 -3 0 -5 -34 -27 -75 -48 -41 -21 -75 -44 -75 -51 0 -7 -3 -12 -7 -12 -5
1 -12 0 -18 -1 -5 -1 -14 -3 -20 -4 -5 -1 -43 -8 -83 -15 -41 -7 -85 -11 -99
-8 -14 3 -40 1 -57 -5 -17 -5 -62 -13 -101 -18 -272 -33 -340 -43 -415 -57
-47 -9 -103 -17 -125 -18 -23 -1 -50 -5 -60 -8 -19 -6 -61 -11 -194 -22 -35
-3 -69 -9 -75 -13 -6 -3 -33 -9 -61 -13 -99 -13 -210 -31 -225 -36 -18 -7 -29
-9 -155 -27 -55 -8 -118 -20 -140 -26 -87 -25 -257 -56 -385 -70 -36 -3 -75
-12 -87 -18 -12 -7 -40 -12 -63 -12 -38 0 -124 -16 -221 -41 -20 -5 -45 -9
-55 -9 -16 0 -121 -29 -219 -60 -20 -7 -31 -7 -34 1 -2 6 -11 3 -23 -7 -15
-15 -21 -16 -27 -5 -5 8 -10 9 -12 3 -2 -6 -20 -12 -39 -15 -35 -4 -62 -12
-90 -26 -9 -5 -36 -12 -60 -16 -25 -4 -85 -20 -133 -36 -49 -16 -94 -26 -99
-23 -5 3 -15 1 -23 -6 -7 -6 -69 -25 -137 -41 -68 -16 -132 -34 -143 -38 -29
-13 -143 -42 -190 -48 -22 -3 -43 -10 -46 -15 -4 -5 -22 -10 -40 -11 -19 -1
-36 -5 -39 -9 -3 -4 -15 -9 -25 -11 -11 -2 -33 -9 -48 -15 -16 -7 -36 -12 -46
-12 -10 0 -24 -6 -30 -13 -6 -8 -37 -19 -68 -26 -32 -7 -65 -16 -73 -21 -9 -4
-39 -11 -67 -15 -29 -4 -57 -13 -64 -21 -6 -8 -20 -14 -30 -14 -10 0 -28 -4
-41 -9 -44 -18 -63 -24 -83 -27 -44 -8 -106 -27 -111 -35 -3 -5 -16 -9 -29 -9
-13 0 -27 -4 -30 -10 -3 -5 -30 -17 -60 -26 -30 -8 -57 -20 -60 -25 -4 -5 -19
-9 -35 -9 -16 0 -35 -7 -44 -15 -8 -8 -21 -12 -29 -9 -8 3 -18 0 -22 -5 -3 -6
-10 -9 -15 -6 -4 3 -13 -2 -20 -10 -7 -8 -19 -15 -28 -15 -20 0 -85 -23 -92
-32 -6 -8 -125 -48 -142 -48 -6 0 -21 -9 -35 -20 -14 -11 -29 -18 -33 -15 -4
3 -21 -2 -36 -10 -16 -8 -35 -15 -42 -15 -7 0 -15 -7 -18 -15 -4 -8 -16 -15
-28 -15 -12 0 -38 -11 -59 -25 -20 -14 -41 -23 -46 -20 -6 3 -12 1 -16 -4 -5
-9 -69 -41 -150 -75 -66 -28 -85 -39 -85 -48 0 -4 -11 -8 -25 -8 -14 0 -25 -4
-25 -9 0 -5 -10 -13 -22 -16 -26 -8 -80 -32 -221 -99 -53 -26 -102 -44 -107
-41 -6 3 -10 2 -10 -3 0 -9 -87 -57 -105 -57 -5 -1 -31 -13 -56 -28 -25 -15
-55 -27 -67 -27 -12 0 -26 -9 -32 -20 -6 -12 -21 -20 -35 -20 -14 0 -25 -4
-25 -8 0 -7 -67 -47 -127 -76 -13 -6 -23 -14 -23 -18 0 -5 -5 -8 -11 -8 -6 0
-22 -9 -36 -20 -14 -11 -29 -17 -34 -14 -5 3 -9 1 -9 -4 0 -5 -12 -15 -27 -22
-16 -8 -47 -29 -70 -47 -23 -18 -44 -33 -48 -33 -3 0 -24 -14 -46 -32 -22 -18
-47 -33 -57 -34 -9 -2 -18 -8 -20 -13 -2 -6 -28 -24 -58 -41 -30 -17 -54 -35
-54 -39 0 -4 -18 -15 -40 -25 -22 -10 -40 -22 -40 -27 0 -5 -5 -9 -11 -9 -7 0
-21 -9 -33 -20 -64 -60 -87 -78 -115 -89 -16 -7 -48 -30 -70 -50 -23 -21 -43
-36 -45 -33 -3 2 -11 -12 -20 -31 -8 -19 -24 -38 -36 -42 -24 -8 -90 -68 -249
-226 -179 -179 -248 -258 -264 -302 -4 -10 -10 -16 -15 -13 -4 2 -25 -18 -47
-46 -22 -28 -54 -65 -71 -82 -51 -53 -164 -204 -164 -220 0 -9 -12 -23 -26
-33 -14 -9 -30 -26 -35 -37 -13 -31 -34 -62 -69 -105 -11 -13 -20 -29 -20 -34
0 -6 -11 -25 -26 -44 -14 -18 -22 -38 -19 -43 3 -5 0 -7 -8 -4 -10 3 -16 -4
-20 -24 -3 -16 -12 -36 -19 -43 -20 -22 -58 -95 -58 -113 0 -9 -6 -19 -14 -22
-8 -3 -18 -20 -22 -37 -3 -18 -9 -34 -13 -37 -7 -6 -64 -121 -112 -230 -18
-41 -39 -82 -47 -91 -14 -18 -18 -34 -26 -118 -4 -30 -15 -70 -26 -88 -11 -19
-20 -47 -20 -64 0 -16 -4 -29 -8 -29 -8 0 -33 -91 -37 -133 -1 -11 -8 -22 -15
-27 -17 -10 -4 -133 13 -124 7 3 4 -1 -6 -9 -9 -8 -17 -23 -17 -34 0 -10 -7
-28 -15 -39 -8 -10 -15 -31 -15 -46 0 -15 -4 -29 -9 -32 -4 -3 -6 -17 -4 -30
3 -14 -2 -35 -11 -48 -19 -26 -22 -98 -4 -98 6 0 4 -6 -6 -13 -11 -8 -19 -32
-23 -70 -3 -31 -10 -57 -14 -57 -5 0 -9 -18 -9 -39 0 -22 -5 -52 -10 -66 -6
-15 -14 -73 -19 -130 -5 -56 -14 -112 -20 -124 -7 -12 -9 -26 -6 -32 4 -5 2
-16 -5 -24 -7 -9 -8 -15 -1 -20 7 -4 3 -16 -10 -34 -14 -19 -19 -38 -16 -64 2
-20 1 -37 -3 -37 -4 0 -12 -39 -19 -87 -7 -49 -15 -95 -18 -103 -3 -8 -7 -42
-9 -74 -3 -32 -9 -67 -15 -78 -6 -10 -7 -28 -4 -39 4 -11 2 -41 -5 -67 -6 -26
-15 -81 -21 -122 -21 -165 -30 -237 -33 -275 -1 -22 -8 -83 -15 -135 -7 -52
-11 -115 -8 -140 3 -29 0 -55 -10 -74 -10 -19 -13 -42 -8 -70 3 -22 8 -75 10
-116 19 -350 29 -476 49 -559 8 -35 12 -69 9 -77 -3 -8 3 -33 14 -57 11 -23
20 -69 22 -104 1 -34 11 -97 22 -140 11 -43 25 -99 31 -125 6 -27 15 -48 19
-48 5 0 9 -13 9 -28 0 -16 3 -32 7 -36 4 -3 8 -16 10 -28 2 -12 7 -26 11 -32
5 -6 17 -33 26 -61 10 -27 31 -77 47 -110 15 -33 40 -91 56 -130 15 -38 53
-122 84 -185 31 -63 60 -126 64 -140 5 -14 18 -38 31 -55 31 -41 55 -114 47
-145 -3 -14 -14 -36 -24 -50 -15 -21 -17 -32 -9 -65 5 -22 10 -53 10 -69 0
-27 63 -175 79 -186 32 -22 9 -60 -74 -125 -65 -50 -103 -94 -110 -124 -3 -16
-19 -40 -35 -54 -17 -16 -31 -40 -34 -59 -10 -71 -24 -194 -24 -218 0 -157 -7
-328 -13 -324 -4 2 -10 0 -14 -6 -3 -5 -1 -10 5 -10 8 0 10 -28 7 -92 -4 -90
-2 -105 23 -178 6 -19 13 -44 14 -55 1 -11 7 -38 14 -60 6 -22 16 -66 22 -97
7 -32 16 -58 21 -58 5 0 9 -11 9 -25 0 -14 14 -53 31 -87 17 -35 41 -97 54
-138 13 -41 37 -103 54 -137 17 -34 31 -66 31 -72 0 -6 11 -35 25 -65 14 -30
25 -61 25 -68 0 -7 12 -31 25 -53 14 -22 25 -50 25 -62 0 -13 5 -23 10 -23 6
0 10 -8 10 -17 0 -21 38 -149 52 -177 9 -18 41 -106 55 -151 4 -11 9 -22 13
-25 3 -3 14 -32 24 -65 27 -92 35 -114 77 -202 22 -46 39 -91 39 -101 0 -10 4
-22 9 -27 5 -6 16 -34 26 -62 9 -29 21 -55 26 -58 5 -4 9 -16 9 -28 0 -12 9
-39 20 -60 11 -20 20 -42 20 -48 0 -6 18 -52 40 -101 22 -50 40 -95 40 -101 0
-5 18 -47 40 -93 22 -46 40 -95 40 -109 0 -14 4 -25 9 -25 5 0 13 -10 17 -22
8 -27 56 -131 64 -138 3 -3 14 -25 25 -50 10 -25 27 -57 37 -72 10 -14 18 -29
18 -33 0 -8 115 -196 147 -241 5 -5 13 -17 18 -26 57 -93 180 -244 272 -335
62 -62 117 -113 122 -113 4 0 17 -8 29 -18 39 -34 151 -112 227 -158 33 -20
62 -39 65 -43 3 -3 21 -14 40 -23 19 -10 58 -31 85 -47 28 -17 66 -37 85 -47
19 -9 76 -36 125 -59 80 -39 263 -114 290 -119 6 -1 15 -4 20 -7 6 -4 73 -27
150 -51 192 -63 242 -78 254 -78 5 0 31 -10 58 -22 46 -20 166 -56 283 -83
316 -75 406 -85 740 -88 241 -2 297 1 360 16 41 9 92 17 114 17 21 0 55 4 75
9 109 28 195 40 273 38 49 -1 88 -6 88 -10 0 -5 -33 -52 -73 -105 -74 -98 -85
-114 -134 -187 -22 -33 -78 -108 -123 -162 -6 -7 -10 -15 -10 -18 0 -4 -16
-26 -35 -49 -19 -24 -35 -49 -35 -57 0 -8 -8 -19 -19 -26 -10 -6 -39 -54 -65
-105 -25 -51 -52 -104 -60 -118 -8 -14 -26 -47 -39 -75 -13 -27 -35 -70 -50
-95 -14 -25 -28 -57 -31 -71 -5 -31 -54 -145 -103 -242 -21 -42 -38 -93 -44
-135 -5 -36 -18 -103 -29 -147 -21 -88 -34 -285 -19 -285 5 0 9 -25 9 -55 0
-30 5 -55 10 -55 6 0 10 -12 10 -27 0 -38 23 -133 32 -133 5 0 8 -11 8 -25 0
-14 4 -25 8 -25 5 0 13 -16 19 -35 13 -42 56 -112 106 -171 20 -25 44 -58 51
-72 8 -15 23 -34 33 -42 10 -9 38 -40 63 -70 116 -139 243 -250 420 -371 36
-24 72 -51 81 -60 9 -9 30 -22 48 -30 17 -8 30 -18 28 -22 -1 -5 -52 -34 -112
-66 -61 -31 -135 -73 -165 -94 -30 -20 -61 -37 -69 -37 -7 0 -34 -15 -60 -33
-25 -19 -71 -44 -101 -57 -30 -12 -68 -32 -85 -44 -27 -19 -68 -42 -170 -95
-22 -11 -58 -37 -80 -56 -22 -20 -52 -43 -67 -52 -16 -10 -28 -21 -28 -25 0
-4 -7 -8 -15 -8 -8 0 -15 -4 -15 -8 0 -5 -19 -23 -42 -40 -81 -58 -249 -219
-268 -255 -8 -16 -23 -33 -35 -39 -24 -13 -79 -58 -70 -58 3 0 -10 -13 -28
-30 -19 -16 -38 -30 -42 -30 -4 0 -16 -10 -27 -22 -132 -153 -195 -218 -210
-218 -4 0 -20 -21 -35 -47 -15 -27 -31 -49 -35 -51 -4 -2 -8 -10 -8 -18 0 -7
-17 -24 -38 -37 -35 -23 -152 -163 -152 -183 0 -5 -14 -27 -32 -48 -29 -35
-30 -39 -11 -34 20 5 21 4 11 -18 -6 -13 -16 -23 -23 -22 -24 6 -96 -89 -76
-101 11 -7 -24 -113 -58 -175 -12 -20 -19 -41 -17 -45 3 -4 -2 -27 -10 -52
-10 -28 -18 -98 -21 -194 -3 -82 -8 -157 -12 -165 -9 -17 -6 -118 3 -127 3 -4
6 -19 6 -35 0 -15 5 -28 10 -28 6 0 10 6 10 14 0 8 5 18 12 22 8 5 10 -9 6
-54 -4 -41 -2 -62 5 -65 9 -3 9 -13 -1 -38 -8 -23 -9 -35 -2 -37 6 -2 8 -17 5
-35 -8 -44 11 -156 30 -177 8 -9 13 -24 10 -33 -4 -8 -2 -18 4 -22 6 -3 11
-17 11 -30 0 -13 5 -27 10 -30 6 -3 10 -15 10 -25 0 -11 8 -34 18 -52 10 -18
28 -57 41 -87 25 -59 57 -109 81 -127 8 -7 29 -24 45 -38 17 -14 34 -26 39
-26 4 0 6 -6 3 -14 -8 -21 14 -77 40 -104 13 -13 23 -29 23 -37 0 -8 7 -15 15
-15 8 0 25 -11 37 -25 12 -14 28 -25 36 -25 10 0 12 -7 8 -26 -6 -23 3 -35 76
-104 45 -43 86 -76 90 -74 4 3 8 0 8 -6 0 -7 6 -10 14 -7 9 4 16 -3 20 -19 4
-13 13 -24 21 -24 8 0 15 -3 15 -7 0 -5 20 -21 44 -36 25 -15 51 -43 60 -62
24 -49 63 -77 98 -70 21 5 28 3 28 -8 0 -20 29 -49 41 -42 5 4 9 -1 9 -9 0 -8
16 -23 35 -32 19 -9 35 -20 35 -25 0 -5 18 -18 40 -29 22 -11 40 -24 40 -28 0
-4 11 -9 26 -10 14 -1 34 -7 45 -13 36 -19 241 -89 261 -89 11 0 29 -5 41 -12
12 -7 27 -13 32 -14 6 -1 33 -7 60 -14 28 -6 75 -16 105 -21 30 -5 66 -11 80
-14 14 -2 52 -7 85 -10 33 -4 80 -13 105 -20 25 -7 99 -19 165 -26 66 -7 122
-15 125 -19 8 -9 193 -41 300 -50 52 -5 167 -18 255 -29 88 -11 180 -21 205
-22 25 -1 51 -7 57 -12 7 -5 20 -7 29 -3 8 3 24 1 34 -4 11 -6 108 -13 217
-15 109 -3 227 -10 263 -15 57 -8 149 -16 300 -26 25 -2 95 -7 155 -12 71 -5
118 -5 133 2 16 6 38 6 70 -3 27 -6 86 -11 131 -10 52 1 86 -2 90 -9 5 -8 17
-9 42 -2 19 5 95 9 169 8 247 -2 450 3 455 13 4 5 20 9 38 8 63 -1 183 12 251
27 38 8 81 12 97 9 15 -3 30 -2 33 3 3 5 29 10 58 11 29 1 55 6 56 12 3 6 9 6
17 -1 18 -15 151 3 174 24 23 21 49 22 32 2 -10 -11 -8 -16 8 -21 11 -3 28 -2
38 3 67 35 151 54 177 40 16 -9 23 -7 34 10 11 16 18 19 31 12 10 -5 33 -5 55
0 29 6 39 5 43 -6 8 -21 83 -18 113 6 26 21 60 27 60 11 0 -10 32 -7 52 5 16
10 69 16 141 16 31 0 57 3 57 7 0 3 23 6 50 6 54 0 60 -8 40 -60 -6 -15 -15
-59 -21 -98 -15 -103 -63 -261 -125 -417 -30 -74 -54 -138 -54 -142 0 -3 -20
-41 -45 -82 -25 -42 -45 -79 -45 -82 0 -9 -132 -195 -198 -280 -24 -30 -54
-73 -66 -95 -28 -49 -87 -118 -226 -263 -58 -60 -127 -132 -153 -160 -101
-108 -116 -122 -155 -156 -22 -19 -94 -87 -159 -150 -364 -353 -551 -532 -573
-547 -13 -9 -38 -33 -55 -52 -54 -62 -215 -221 -223 -221 -5 0 -22 -15 -39
-32 -44 -48 -189 -178 -242 -217 -25 -19 -62 -47 -83 -63 -20 -15 -52 -35 -72
-45 -20 -9 -36 -20 -36 -24 0 -3 -25 -22 -55 -40 -31 -19 -78 -49 -106 -66
-28 -18 -55 -33 -61 -33 -5 0 -22 -8 -36 -19 -37 -25 -157 -81 -175 -81 -8 0
-20 -7 -27 -15 -7 -8 -17 -15 -23 -15 -5 0 -28 -9 -51 -19 -105 -50 -174 -81
-180 -81 -9 0 -84 -34 -169 -76 -37 -19 -77 -34 -87 -34 -11 0 -48 -14 -82
-30 -35 -17 -79 -35 -98 -40 -19 -4 -79 -20 -134 -34 -54 -14 -107 -26 -117
-26 -11 0 -27 -4 -37 -9 -9 -5 -46 -17 -82 -26 -36 -9 -84 -30 -107 -46 -23
-16 -44 -29 -48 -29 -4 0 -24 -15 -45 -32 -20 -18 -45 -40 -56 -49 -29 -24
-61 -64 -79 -98 -8 -17 -20 -31 -25 -31 -5 0 -14 -9 -20 -20 -9 -16 -7 -22 7
-27 24 -9 83 -73 83 -90 0 -7 9 -13 19 -13 11 0 23 -9 26 -21 5 -16 12 -19 31
-15 16 4 30 1 40 -9 20 -19 60 -19 159 2 44 9 94 17 110 17 17 1 36 5 43 9 7
5 23 7 36 5 13 -1 31 4 41 12 14 11 19 12 22 3 6 -16 35 -17 50 -2 8 8 13 8
17 0 11 -16 26 -13 26 5 0 13 3 14 13 5 10 -8 17 -7 25 1 6 6 28 11 48 10 21
-1 43 3 50 9 6 5 16 9 20 8 8 -2 58 18 106 42 10 5 25 9 33 9 17 0 56 20 66
34 4 5 11 6 17 2 6 -4 27 8 47 26 26 22 39 28 44 19 6 -9 11 -8 21 4 7 8 21
15 31 15 11 0 19 5 19 12 0 6 3 8 7 5 3 -4 11 1 18 9 6 9 20 17 31 19 31 3 94
35 101 50 3 8 11 15 18 15 7 0 18 7 25 15 7 8 21 15 31 15 11 0 19 6 19 14 0
9 7 12 22 9 19 -4 20 -3 8 7 -12 9 -10 11 12 6 15 -3 29 -2 32 3 4 5 24 12 45
16 22 4 45 13 52 21 6 8 16 14 21 14 5 0 25 7 46 16 20 8 37 14 37 13 0 -1 18
9 40 22 22 14 56 31 75 39 19 8 37 17 40 20 3 4 26 17 53 30 26 13 55 31 65
40 22 20 92 63 92 56 0 -3 12 6 26 19 14 13 36 27 48 31 18 6 40 21 93 64 7 6
17 10 23 10 13 0 60 33 94 67 13 13 27 23 32 23 5 0 34 22 66 48 31 26 85 70
120 99 34 28 131 118 215 200 84 81 189 182 233 223 131 122 384 379 394 399
4 10 19 24 32 31 13 7 26 21 30 32 3 10 12 18 19 18 8 0 26 18 42 40 15 22 32
40 38 40 9 0 179 170 169 170 -11 0 49 50 67 55 11 4 19 11 19 16 0 6 6 17 13
24 6 8 26 32 42 54 17 22 34 40 38 41 5 0 15 6 23 14 7 8 24 23 37 33 12 10
33 32 45 48 53 68 97 115 107 115 7 0 18 11 25 25 7 14 17 25 22 25 4 0 8 5 8
10 0 13 37 50 50 50 6 0 10 5 10 11 0 7 13 26 30 43 48 51 100 113 100 120 0
8 43 67 75 102 31 35 111 152 157 229 23 39 44 72 47 75 4 3 12 16 19 30 28
53 59 109 69 122 5 7 16 36 23 63 8 28 21 64 31 80 9 17 22 48 29 70 7 22 16
45 20 50 10 13 45 116 60 175 6 25 15 54 19 65 13 31 29 109 51 255 38 243 64
319 106 303 8 -3 14 -1 14 4 0 6 18 18 39 28 22 10 42 23 45 31 3 7 24 18 48
24 57 15 88 36 88 60 0 10 9 35 21 55 43 72 27 275 -22 288 -11 3 -35 4 -54 2
-19 -2 -76 -5 -127 -6 l-93 -4 -6 50 c-4 28 -19 129 -34 225 -15 96 -30 198
-34 225 -4 28 -17 71 -29 96 -12 25 -22 64 -22 87 0 22 -4 44 -10 47 -5 3 -10
21 -10 38 0 18 -12 67 -27 109 -21 62 -29 75 -40 67 -10 -9 -15 -5 -24 17 -6
16 -12 42 -15 57 -2 16 -15 53 -29 82 -14 30 -25 60 -25 67 -1 7 -14 38 -30
68 -17 30 -30 61 -30 68 0 6 -4 12 -8 12 -4 0 -16 23 -27 51 -11 28 -28 58
-37 66 -10 9 -18 24 -18 35 0 10 -4 18 -10 18 -5 0 -19 20 -30 44 -12 23 -34
56 -50 71 -17 16 -30 33 -30 38 0 6 -18 34 -40 63 -22 29 -40 57 -40 62 0 5
-16 23 -37 41 -20 17 -47 48 -61 68 -14 21 -31 42 -39 46 -7 4 -13 13 -13 19
0 6 -17 30 -37 53 -21 23 -60 71 -88 106 -27 35 -94 107 -147 160 -54 52 -98
101 -98 107 0 7 -4 12 -10 12 -5 0 -20 16 -32 35 -13 19 -26 35 -29 35 -11 0
-149 139 -149 150 0 5 -8 10 -19 10 -10 0 -29 16 -42 35 -13 19 -30 35 -36 35
-7 0 -13 4 -13 9 0 5 -8 12 -17 15 -10 3 -27 20 -38 36 -11 17 -30 33 -41 36
-12 3 -37 21 -55 40 -18 19 -37 34 -41 34 -5 0 -32 17 -61 38 -29 20 -68 46
-87 56 -19 11 -51 29 -70 41 -19 12 -39 22 -44 23 -5 0 -12 4 -15 9 -10 13
-101 73 -111 73 -6 0 -10 5 -10 10 0 6 -9 10 -20 10 -12 0 -34 14 -50 31 -28
28 -160 88 -160 72 0 -4 -5 -2 -12 5 -7 7 -22 12 -35 12 -13 0 -23 5 -23 10 0
6 -9 10 -21 10 -11 0 -33 8 -47 18 -15 10 -38 23 -52 29 -14 6 -45 20 -70 32
-25 12 -55 23 -67 25 -12 3 -32 10 -44 17 -13 6 -39 14 -58 16 -20 3 -44 12
-53 20 -9 8 -30 16 -45 18 -41 3 -113 27 -113 37 0 4 -7 8 -15 8 -8 0 -15 5
-15 10 0 6 -5 10 -11 10 -6 0 -52 16 -101 36 -49 19 -97 37 -108 39 -43 8
-222 68 -257 86 -20 10 -43 19 -50 19 -7 0 -21 4 -31 9 -18 10 -50 22 -67 26
-31 8 -193 79 -207 92 -9 8 -21 12 -26 9 -5 -3 -24 5 -43 17 -19 13 -54 29
-79 37 -25 8 -58 23 -75 34 -42 30 -74 46 -122 62 -58 20 -162 80 -189 109
-13 14 -28 25 -34 25 -5 0 -10 10 -11 23 0 12 -3 16 -6 10 -7 -18 -27 -16 -70
7 -21 11 -46 20 -55 20 -10 0 -23 9 -30 20 -7 11 -22 20 -34 20 -11 0 -28 8
-37 18 -9 9 -33 26 -54 36 -62 32 -83 56 -83 93 0 18 -5 33 -11 33 -5 0 -3 10
5 22 20 27 21 44 3 29 -17 -14 -62 31 -62 62 0 20 -101 104 -152 127 -13 5
-23 14 -23 20 0 5 -16 16 -35 24 -19 8 -35 19 -35 23 0 5 -11 22 -25 38 -13
17 -39 50 -57 74 -32 43 -40 47 -105 58 -18 3 -33 11 -33 18 0 6 -9 20 -20 30
-11 10 -20 25 -20 33 0 8 -12 31 -27 51 -16 19 -40 60 -55 90 l-26 54 20 28
c17 23 19 31 9 43 -7 8 -9 21 -5 28 4 7 4 10 -1 6 -29 -26 -57 108 -50 242 5
111 22 200 58 290 14 36 39 103 57 150 17 47 36 92 41 100 5 8 12 22 15 30 3
8 11 26 19 40 7 14 30 57 50 95 21 39 44 77 51 86 8 8 14 21 14 28 0 14 79
136 110 169 11 12 20 28 20 37 0 8 4 15 9 15 5 0 22 24 39 53 16 28 49 75 73
102 24 28 52 64 62 82 21 39 50 75 100 124 20 21 37 43 37 49 0 5 4 10 8 10 4
0 16 15 26 33 22 39 214 227 232 227 7 0 24 14 39 32 15 18 35 37 45 43 75 43
118 71 135 85 11 10 44 28 73 41 28 13 52 27 52 31 0 7 75 33 127 43 21 4 43
1 64 -11 31 -16 35 -15 66 1 22 12 44 16 68 12 26 -4 38 -2 42 9 3 8 19 14 38
14 18 0 38 7 45 15 7 9 21 13 30 10 10 -3 25 1 33 9 8 8 28 18 43 22 16 3 49
13 74 21 30 10 63 13 100 9 l56 -6 29 50 c17 27 33 50 37 50 4 0 35 25 67 56
54 50 60 59 55 88 -9 51 -26 89 -56 124 -26 30 -32 45 -29 65 3 22 -33 69 -64
81 -19 8 -35 22 -35 30 0 8 41 47 90 87 50 39 90 75 90 80 0 5 7 9 15 9 8 0
15 4 15 10 0 5 48 46 106 92 59 45 109 89 111 99 3 9 13 21 23 25 35 17 172
157 256 263 10 13 26 31 34 40 67 70 110 156 120 235 5 39 15 97 24 128 9 32
13 64 10 73 -4 8 -1 21 4 28 10 11 28 81 49 180 3 15 9 27 14 27 5 0 9 7 9 15
0 36 18 10 39 -57 33 -107 41 -130 57 -161 8 -16 14 -34 14 -41 0 -20 100
-269 115 -286 7 -8 31 -52 54 -97 22 -44 44 -83 49 -85 5 -1 23 -33 41 -70 17
-37 54 -94 81 -126 28 -33 50 -63 50 -66 0 -3 27 -33 60 -65 33 -33 60 -63 60
-66 0 -10 43 -55 52 -55 4 0 31 -24 60 -52 65 -65 146 -135 174 -151 29 -17
225 -161 249 -184 48 -45 139 -93 165 -86 11 3 37 -3 57 -13 37 -17 46 -20 88
-27 11 -2 33 -11 48 -21 15 -10 31 -15 35 -11 4 4 1 10 -5 12 -16 6 -17 23 -3
23 6 0 15 -11 20 -25 14 -38 154 -92 170 -66 9 16 30 6 30 -13 0 -14 35 -31
85 -41 17 -4 39 -10 50 -15 86 -36 192 -53 200 -33 2 8 9 11 15 8 6 -4 8 -10
5 -15 -8 -12 28 -30 59 -30 18 0 26 5 26 17 0 9 3 13 8 9 4 -4 7 -13 7 -19 0
-5 19 -17 43 -25 39 -13 45 -12 62 3 17 15 19 15 33 -5 17 -24 65 -33 190 -34
37 -1 67 -4 67 -7 0 -11 82 -18 105 -9 12 5 26 5 31 0 22 -20 378 -31 439 -13
22 6 65 10 96 8 47 -3 182 5 324 20 17 2 34 4 38 4 5 1 6 5 3 10 -10 15 18 30
65 35 24 2 52 8 62 11 9 4 24 2 31 -4 10 -8 16 -9 21 -1 3 5 23 10 43 10 20 0
57 10 82 21 24 11 65 23 90 26 25 3 54 11 66 18 11 7 48 16 83 19 58 5 151 40
151 58 0 4 8 8 18 8 21 0 123 35 172 59 234 117 367 187 393 210 18 15 39 31
47 34 8 4 47 30 85 57 39 28 88 63 110 77 22 14 60 43 85 63 25 20 63 49 86
63 37 23 72 50 174 138 19 17 71 65 116 107 44 42 107 102 140 133 58 54 93
95 145 168 82 116 100 143 122 187 14 27 42 101 63 164 22 63 43 118 47 121 5
3 11 26 14 50 3 24 10 49 14 55 5 6 11 53 14 105 3 52 10 117 15 144 5 28 12
113 15 190 4 77 13 210 19 295 16 188 19 674 6 825 -5 61 -17 160 -25 220 -9
61 -20 148 -26 195 -5 47 -14 99 -19 115 -5 17 -20 89 -34 162 -14 72 -39 180
-55 240 -16 59 -31 122 -33 138 -3 17 -14 66 -26 110 -11 44 -27 114 -36 155
-32 143 -58 245 -86 330 -15 47 -43 135 -63 195 -34 104 -47 139 -94 245 -11
25 -28 68 -38 95 -19 55 -36 93 -155 340 -104 216 -177 346 -263 465 -37 52
-84 120 -104 150 -19 30 -39 57 -43 60 -3 3 -26 32 -50 65 -23 33 -48 65 -54
70 -6 6 -28 32 -49 59 -42 56 -227 257 -272 295 -16 14 -50 44 -75 67 -86 77
-197 164 -208 164 -7 0 -20 7 -30 15 -88 77 -205 156 -322 217 -47 24 -95 50
-107 56 -101 53 -113 59 -173 83 -30 11 -61 26 -69 33 -8 6 -41 21 -75 32 -34
12 -81 29 -106 39 -129 49 -291 90 -405 102 -27 3 -55 9 -61 14 -18 14 -245
40 -380 42 -148 2 -399 -9 -415 -19 -6 -3 -29 -3 -53 0 -28 5 -54 2 -79 -9
-20 -8 -52 -15 -71 -15 -19 0 -41 -6 -48 -14 -8 -7 -53 -18 -102 -24 -66 -7
-93 -15 -110 -31 -13 -12 -36 -21 -54 -21 -17 0 -34 -4 -37 -10 -3 -5 -14 -10
-24 -10 -21 0 -80 -28 -99 -47 -7 -7 -21 -13 -31 -13 -9 0 -21 -4 -26 -9 -10
-8 -51 -31 -194 -107 -35 -19 -79 -51 -99 -71 -19 -21 -45 -45 -57 -53 -12 -8
-41 -27 -63 -42 -49 -33 -233 -212 -257 -250 -10 -16 -22 -25 -31 -21 -7 3
-17 -2 -20 -11 -3 -9 -10 -16 -15 -16 -16 0 -139 -152 -139 -172 0 -12 -92
-142 -117 -165 -13 -13 -30 -23 -37 -23 -7 0 -21 -9 -31 -20 -10 -11 -25 -20
-34 -20 -9 -1 -34 -19 -56 -40 -22 -22 -43 -40 -47 -40 -13 0 -173 -166 -184
-191 -6 -13 -23 -49 -37 -79 -14 -30 -29 -68 -33 -85 -4 -16 -18 -51 -31 -76
-13 -26 -23 -52 -23 -58 0 -13 -60 -146 -100 -222 -17 -31 -30 -65 -30 -76 0
-10 -5 -24 -12 -31 -13 -13 -72 -153 -94 -227 -9 -27 -22 -63 -29 -80 -16 -35
-50 -130 -71 -197 -8 -26 -19 -50 -24 -53 -6 -3 -10 -15 -10 -26 0 -10 -4 -19
-9 -19 -8 0 -101 135 -173 251 -9 14 -23 33 -31 41 -8 8 -27 37 -41 64 -40 74
-180 301 -213 342 -15 21 -37 55 -48 77 -23 48 -85 134 -123 173 -15 15 -36
41 -46 57 -11 17 -43 58 -70 92 -28 34 -85 106 -126 160 -41 54 -110 134 -152
177 -43 44 -78 82 -78 84 0 6 -201 202 -208 202 -2 0 -44 38 -91 84 -47 46
-108 101 -135 121 -26 20 -64 51 -83 68 -19 18 -47 39 -63 47 -15 8 -56 35
-91 60 -131 91 -356 204 -589 295 -25 9 -54 21 -65 25 -55 23 -223 72 -273 82
-302 55 -410 59 -480 17 -18 -10 -45 -19 -60 -19 -15 0 -38 -9 -52 -20 -14
-11 -32 -20 -40 -20 -9 0 -31 -13 -50 -30 -19 -16 -43 -29 -53 -30 -10 0 -40
-21 -67 -46 l-50 -47 -98 -8 c-53 -5 -108 -14 -122 -19 -14 -6 -38 -12 -55
-14 -35 -5 -127 -38 -202 -72 -28 -13 -58 -24 -65 -24 -8 0 -19 -5 -25 -11
-14 -14 -148 -69 -167 -69 -8 0 -19 -6 -25 -14 -6 -7 -37 -21 -69 -30 -31 -9
-73 -25 -92 -35 -19 -10 -71 -33 -115 -50 -44 -18 -93 -38 -110 -45 -16 -7
-79 -35 -140 -61 -221 -96 -296 -131 -385 -181 -36 -19 -92 -49 -125 -66 -33
-16 -67 -34 -75 -39 -8 -5 -30 -16 -48 -25 -19 -10 -36 -23 -39 -30 -3 -7 -30
-27 -61 -45 -32 -18 -61 -37 -67 -44 -5 -6 -29 -24 -52 -39 -24 -16 -43 -32
-43 -36 0 -4 -16 -15 -36 -26 -20 -10 -68 -50 -107 -87 -38 -37 -81 -76 -96
-85 -34 -22 -251 -234 -251 -245 0 -9 -25 -38 -85 -103 -16 -17 -41 -47 -55
-65 -32 -44 -203 -243 -212 -247 -5 -2 -8 -9 -8 -14 0 -6 -7 -18 -15 -27 -8
-9 -23 -26 -35 -38 -11 -13 -20 -29 -20 -36 0 -19 -54 -77 -71 -77 -34 1 -127
114 -175 213 -13 29 -33 68 -44 87 -11 19 -20 43 -20 52 0 10 -4 18 -9 18 -9
0 -34 54 -35 76 -1 6 -6 18 -12 25 -6 8 -17 38 -24 67 -6 28 -16 55 -21 58 -5
3 -9 16 -9 30 0 13 -4 24 -10 24 -5 0 -10 9 -10 19 0 10 -13 43 -28 73 -16 29
-27 59 -24 66 2 6 -3 12 -11 12 -17 0 -27 29 -27 78 0 21 -5 32 -15 32 -8 0
-17 14 -21 38 -4 20 -9 41 -12 47 -3 5 -5 26 -3 46 1 20 -2 40 -8 43 -5 4 -13
27 -17 51 -3 25 -10 45 -15 45 -5 0 -6 7 -3 15 4 8 3 23 -2 33 -9 19 -10 25
-24 107 -13 73 -18 126 -24 275 -3 69 -9 116 -16 118 -7 3 -7 8 -2 15 12 16
25 117 15 117 -14 0 -3 525 11 549 4 6 2 19 -3 30 -6 11 -7 21 -3 23 4 2 16
66 26 143 10 77 21 154 23 170 2 17 7 60 10 97 3 37 9 66 13 63 4 -2 10 32 14
77 4 45 11 85 15 88 5 3 11 25 14 50 3 25 12 80 20 123 9 44 13 86 10 95 -4
15 -3 15 6 2 9 -12 11 -9 12 15 1 17 0 42 -1 57 -1 15 3 36 9 47 8 14 8 22 0
27 -9 5 -8 10 3 18 8 6 18 27 22 46 19 97 25 141 26 200 1 49 4 60 11 45 9
-18 9 -18 5 3 -6 32 20 226 39 281 8 25 16 68 19 95 2 26 9 52 16 56 6 4 11
16 9 26 -1 11 3 32 10 48 6 16 9 36 6 43 -2 8 2 28 10 44 9 16 13 33 11 38 -3
5 3 20 15 35 11 14 19 31 18 38 -3 20 12 70 33 103 10 17 18 40 18 52 0 12 6
26 13 30 13 8 57 109 57 131 0 6 4 12 9 12 5 0 12 16 15 35 4 21 13 35 21 35
8 0 14 4 13 8 -4 12 25 82 34 82 4 0 8 8 8 19 0 10 11 30 25 45 14 15 22 33
18 42 -3 9 0 14 8 12 9 -2 14 5 13 19 0 12 4 21 10 20 6 -1 9 10 8 25 -3 21 0
27 11 22 10 -3 18 3 22 18 4 13 19 39 34 58 15 19 30 43 34 53 3 9 11 17 17
17 5 0 10 10 10 23 0 15 9 29 25 37 14 7 25 19 25 25 0 12 32 58 87 123 15 19
31 42 35 52 6 17 33 49 106 127 17 19 32 38 32 41 1 4 19 25 40 47 22 22 40
43 40 47 0 5 7 8 15 8 8 0 12 6 9 14 -3 8 2 20 11 27 10 8 41 37 70 64 29 28
71 68 94 89 22 21 41 45 41 53 0 7 8 17 17 20 10 4 27 17 39 30 12 13 26 23
32 23 6 0 20 14 32 30 12 17 26 30 31 30 6 0 21 10 34 23 44 42 77 67 86 67 6
0 7 5 4 10 -3 6 1 10 9 10 9 0 16 3 16 8 0 4 19 16 41 27 23 11 47 27 53 37 6
10 19 18 29 18 13 0 17 5 13 16 -3 8 -2 12 4 9 13 -8 61 18 96 53 16 16 41 32
55 36 15 3 48 24 75 46 27 22 62 47 79 55 16 9 48 29 70 45 22 16 46 27 53 25
7 -3 23 4 34 15 12 11 42 30 67 42 25 12 48 25 51 28 3 4 17 10 31 13 14 4 36
16 49 27 13 11 33 20 45 20 13 0 28 7 35 15 7 8 18 15 25 15 14 0 217 101 239
119 7 6 27 14 44 17 18 4 30 10 27 14 -3 4 3 10 13 13 53 18 123 48 162 71 25
14 65 35 90 47 25 11 77 36 115 55 104 50 163 73 169 66 4 -3 12 2 19 11 10
14 99 51 207 87 14 4 39 14 55 20 17 7 37 12 46 11 9 -1 22 5 29 14 7 8 20 15
29 15 19 1 119 34 128 44 3 3 17 6 29 6 13 0 28 8 33 18 7 14 18 18 40 14 24
-3 31 -1 31 13 0 12 6 16 20 12 11 -3 23 -1 26 4 3 5 11 8 17 7 14 -2 77 17
125 39 19 8 36 12 40 9 3 -3 13 1 22 9 9 8 38 19 65 24 27 5 54 16 60 25 7 9
31 16 58 18 26 2 47 6 47 10 0 4 16 10 35 14 19 3 39 12 46 20 7 8 21 11 34 8
14 -3 46 6 84 24 40 19 60 25 57 16 -7 -18 8 -18 23 -1 6 8 37 20 68 27 32 7
83 22 113 33 30 12 64 22 75 23 43 2 140 27 162 41 14 9 33 13 48 9 14 -4 25
-2 25 4 0 5 12 10 28 10 24 0 63 10 157 42 17 5 55 17 85 25 30 8 60 19 66 24
6 5 15 4 22 -3 9 -9 16 -7 31 6 14 13 29 16 53 12 18 -3 27 -3 21 0 -23 10
-14 26 12 22 14 -3 28 -1 31 3 3 5 17 9 32 9 15 0 40 7 56 15 17 9 44 14 67
11 21 -3 39 -1 41 4 3 8 20 13 88 26 30 5 80 13 98 16 6 1 12 4 12 8 0 3 8 6
18 6 9 1 33 4 52 8 19 4 44 8 55 10 11 2 20 4 20 6 0 1 9 3 20 4 93 12 132 20
147 27 10 5 68 14 130 20 62 7 115 15 118 19 3 3 47 12 98 18 51 6 98 14 104
18 7 4 26 9 43 11 96 8 135 15 135 24 0 5 20 9 43 9 24 0 47 3 51 7 3 4 14 8
24 10 9 1 57 9 106 17 49 8 93 13 98 10 4 -3 17 0 29 7 16 8 28 8 45 0 15 -6
24 -7 24 -1 0 6 14 10 30 10 17 0 30 4 30 8 0 7 31 10 118 11 18 1 41 5 52 11
20 11 76 18 201 27 80 5 88 4 105 -15 10 -12 21 -19 25 -16 5 2 16 -7 25 -22
17 -24 16 -30 0 -97 -51 -208 -68 -289 -73 -359 -3 -43 -9 -75 -13 -73 -4 2
-10 -50 -13 -117 -9 -163 -9 -220 2 -214 4 3 6 -6 3 -20 -3 -14 0 -49 7 -78 6
-28 18 -85 26 -126 8 -41 18 -86 22 -100 13 -42 56 -110 70 -110 7 0 13 -6 13
-14 0 -20 15 -28 58 -30 20 -1 43 -5 50 -10 19 -11 114 -9 163 4 23 6 43 9 46
6 10 -10 65 54 59 69 -3 9 -2 14 3 11 4 -3 11 19 14 48 3 34 19 80 41 123 34
66 45 104 29 102 -22 -4 -24 3 -8 21 10 11 13 20 7 20 -8 0 -12 22 -12 63 0
34 -5 79 -11 100 -7 27 -7 59 0 105 7 42 7 70 1 76 -6 6 -4 16 7 28 13 14 13
20 3 33 -10 13 -10 19 2 33 8 9 16 35 17 57 2 54 6 73 14 81 4 4 7 22 7 40 0
26 4 32 15 28 10 -4 15 0 15 15 0 12 4 29 9 39 5 9 15 36 22 60 7 23 16 42 20
42 4 0 21 24 38 53 16 28 39 58 50 65 12 7 21 21 21 31 0 10 16 35 35 55 19
21 35 42 35 47 0 5 6 9 13 9 8 0 22 9 31 19 10 11 24 17 31 15 7 -3 16 -1 20
5 3 6 22 11 41 11 19 0 34 3 34 8 0 4 55 7 123 6 67 0 130 3 140 8 12 6 17 5
17 -4 0 -8 3 -9 8 -3 9 13 54 14 721 20 299 3 547 8 552 10 4 3 11 0 14 -6 4
-6 18 -8 31 -5 16 4 26 1 33 -11 6 -11 11 -13 11 -5 0 10 5 10 21 1 12 -6 29
-9 39 -6 29 7 198 -151 226 -211 18 -39 34 -54 34 -32 0 6 4 10 8 10 5 0 7
-15 5 -32 -2 -18 0 -27 3 -20 9 19 24 14 24 -8 0 -11 4 -28 9 -38 5 -9 12 -25
15 -35 4 -11 11 -15 17 -11 7 4 9 3 6 -3 -3 -5 1 -38 9 -74 16 -67 11 -108
-21 -169 -7 -14 -16 -42 -20 -62 -4 -21 -13 -38 -20 -38 -15 0 -29 -67 -26
-125 1 -22 -5 -59 -13 -82 -18 -51 -43 -191 -52 -293 -3 -41 -10 -83 -16 -93
-11 -21 -11 -255 1 -347 7 -59 9 -63 19 -40 10 24 11 24 11 -12 1 -20 8 -43
16 -52 8 -8 15 -27 15 -43 0 -22 2 -25 10 -13 8 13 14 10 33 -14 17 -21 26
-26 32 -17 5 9 10 10 14 2 10 -16 198 -34 221 -21 10 6 37 10 59 10 23 0 41 5
41 10 0 6 9 10 20 10 22 0 88 42 105 68 7 9 16 31 19 49 4 17 13 34 21 37 7 2
17 26 21 53 3 26 13 55 21 64 7 9 15 42 16 73 2 36 10 65 23 83 34 47 45 87
47 171 1 45 4 82 7 82 4 0 12 -6 19 -12 10 -11 12 -6 9 22 -3 30 0 35 17 33
11 -1 24 5 28 13 5 8 13 12 18 8 6 -3 18 1 28 10 14 13 24 14 49 5 25 -9 38
-8 63 5 18 9 38 16 44 16 7 0 20 11 29 25 13 19 23 24 37 20 11 -4 27 -1 35 6
8 7 34 14 57 16 23 2 54 9 69 14 15 6 34 9 43 6 8 -4 20 -1 27 6 7 7 27 12 43
11 37 -1 75 32 75 66 0 44 -61 131 -157 224 -17 17 -40 51 -49 76 -20 49 -79
140 -101 153 -25 15 -62 56 -98 112 -40 59 -38 43 -23 242 3 28 8 33 38 38 18
4 39 14 46 22 14 20 177 25 296 10 57 -8 96 -7 144 2 41 7 70 8 77 3 16 -13
62 -22 122 -23 28 -1 54 -4 58 -6 9 -5 97 -11 256 -17 77 -3 117 -9 122 -17 6
-10 11 -10 22 -1 7 7 17 9 20 6 8 -8 80 -24 136 -29 24 -2 49 -9 54 -14 6 -6
37 -11 68 -11 32 0 61 -4 64 -10 3 -5 22 -10 41 -10 19 0 34 -4 34 -10 0 -5 7
-7 15 -4 8 4 21 2 28 -4 12 -10 101 -27 127 -25 8 1 17 -2 20 -7 3 -4 23 -11
45 -14 60 -10 118 -29 133 -43 17 -16 29 -17 35 0 4 10 6 10 6 0 1 -7 10 -13
20 -13 20 0 83 -33 113 -60 103 -92 128 -116 128 -122 0 -9 67 -106 87 -126 7
-7 13 -22 13 -32 0 -13 5 -17 15 -14 11 4 13 2 10 -9 -4 -8 0 -17 8 -20 8 -3
32 -40 53 -82 22 -41 51 -90 66 -108 16 -18 28 -35 28 -38 0 -3 14 -21 30 -39
17 -18 30 -37 30 -40 0 -4 11 -13 25 -20 14 -7 25 -18 25 -24 0 -7 8 -19 18
-28 44 -40 74 -80 69 -92 -3 -8 3 -22 13 -31 10 -9 20 -29 24 -46 3 -16 14
-39 25 -51 11 -11 33 -46 48 -77 15 -31 31 -59 36 -62 4 -3 5 -13 2 -22 -4
-10 1 -20 15 -27 11 -6 18 -16 14 -21 -3 -6 2 -19 11 -29 9 -10 14 -23 11 -29
-4 -5 -2 -12 4 -16 5 -3 10 -18 10 -32 0 -21 2 -24 15 -13 13 10 15 9 15 -8 0
-16 4 -20 17 -15 10 4 14 2 10 -4 -10 -17 7 -54 43 -93 17 -19 36 -47 42 -62
5 -16 16 -28 24 -28 7 0 18 -9 24 -20 6 -11 16 -20 22 -20 6 0 21 -11 34 -25
13 -14 34 -25 48 -25 13 0 26 -6 29 -12 5 -16 160 -13 165 2 10 30 36 41 83
36 27 -2 49 -1 49 4 0 4 23 6 52 5 45 -2 55 2 80 27 36 37 41 60 36 176 -4 81
-10 109 -36 172 -18 41 -32 87 -32 102 0 15 -4 30 -10 33 -5 3 -10 14 -10 23
0 9 -14 44 -30 76 -17 32 -30 67 -30 76 0 22 25 44 40 35 6 -4 18 1 25 11 14
18 14 18 15 0 0 -16 6 -18 42 -13 29 4 48 1 58 -8 8 -7 24 -15 35 -17 11 -1
28 -16 37 -33 12 -21 17 -25 18 -12 0 25 15 21 28 -8 7 -14 19 -28 28 -32 9
-3 35 -23 58 -44 28 -26 47 -37 59 -33 15 5 18 2 13 -13 -5 -16 1 -22 35 -33
22 -8 49 -24 59 -37 10 -13 23 -23 28 -23 6 0 15 -6 19 -13 4 -6 26 -25 48
-42 22 -16 46 -37 53 -47 7 -10 17 -16 22 -13 4 3 14 -2 21 -11 17 -21 127
-104 138 -104 5 0 11 -7 15 -15 3 -8 12 -15 20 -15 9 0 22 -13 31 -30 9 -16
23 -30 33 -30 9 0 34 -16 55 -35 21 -19 43 -35 48 -35 6 0 35 -25 65 -55 31
-30 60 -55 66 -55 11 0 68 -58 68 -69 0 -3 13 -12 29 -19 16 -7 40 -28 52 -47
13 -19 30 -35 37 -35 8 0 26 -13 40 -28 15 -16 39 -32 53 -35 14 -4 31 -18 37
-32 6 -14 19 -25 27 -25 8 0 21 -11 27 -25 6 -13 19 -27 30 -31 24 -7 61 -42
77 -71 6 -13 18 -23 26 -23 7 0 22 -11 33 -25 11 -14 26 -25 34 -25 7 0 22
-16 32 -35 14 -25 22 -32 28 -23 6 10 8 9 8 -3 0 -9 9 -19 20 -22 11 -3 24
-17 30 -31 5 -15 21 -31 35 -36 14 -5 25 -14 25 -20 0 -12 115 -122 134 -129
6 -2 29 -23 52 -45 23 -23 46 -45 53 -51 6 -5 31 -31 56 -58 24 -26 56 -52 70
-57 14 -5 29 -20 34 -33 10 -25 65 -77 82 -77 6 0 15 -13 20 -30 7 -19 18 -30
30 -30 11 0 22 -8 26 -17 3 -10 20 -31 37 -46 72 -65 103 -97 130 -136 17 -22
33 -41 37 -41 12 0 59 -49 59 -61 0 -5 16 -19 35 -30 19 -12 33 -25 30 -29 -6
-10 60 -80 75 -80 6 0 10 -6 10 -14 0 -7 20 -31 44 -52 24 -21 46 -49 50 -61
4 -12 16 -25 27 -28 12 -4 27 -22 35 -41 8 -19 19 -34 24 -34 6 0 10 -4 10
-10 0 -9 11 -23 69 -88 16 -18 32 -40 35 -50 3 -10 19 -32 36 -50 16 -18 30
-37 30 -43 0 -5 5 -9 10 -9 6 0 10 -8 10 -19 0 -10 9 -21 20 -24 11 -3 20 -12
20 -21 0 -9 5 -16 10 -16 6 0 10 -6 10 -12 0 -7 14 -27 30 -45 17 -18 30 -37
30 -43 0 -6 5 -16 10 -23 24 -27 74 -113 75 -128 1 -10 9 -25 18 -34 10 -9 24
-30 32 -46 9 -16 20 -29 25 -29 5 0 12 -10 16 -22 6 -20 59 -105 84 -135 5 -7
10 -24 10 -38 0 -14 4 -24 10 -20 5 3 15 -14 22 -37 6 -24 17 -46 24 -50 6 -4
15 -20 19 -35 3 -16 12 -35 20 -43 7 -8 15 -24 17 -35 2 -11 10 -19 16 -17 7
1 12 -8 12 -20 0 -12 6 -29 13 -37 7 -9 21 -42 32 -74 10 -32 23 -60 27 -63
11 -7 58 -112 58 -130 0 -7 6 -19 13 -26 16 -16 29 -46 32 -72 1 -10 9 -24 18
-31 11 -8 17 -26 17 -49 0 -37 15 -50 22 -18 3 9 4 -1 4 -24 0 -26 6 -47 17
-58 9 -10 17 -23 17 -29 0 -7 9 -29 19 -48 12 -22 17 -46 14 -59 -3 -12 -1
-25 5 -29 6 -3 13 -18 16 -33 2 -14 10 -36 16 -48 6 -12 9 -27 7 -34 -3 -7 3
-26 14 -42 10 -16 19 -43 19 -60 0 -17 6 -37 14 -43 8 -7 12 -20 9 -31 -3 -10
2 -29 11 -42 9 -12 16 -37 16 -55 0 -18 4 -33 9 -33 5 0 11 -24 15 -52 7 -52
19 -103 35 -143 5 -11 13 -32 19 -47 6 -14 16 -55 22 -90 21 -124 31 -157 45
-151 11 4 14 -6 13 -39 -1 -61 24 -153 45 -169 5 -3 8 -15 6 -25 -1 -11 1 -26
4 -34 3 -8 8 -28 10 -45 2 -16 16 -73 31 -125 14 -52 26 -110 26 -128 0 -18 4
-31 8 -28 8 5 32 -124 32 -171 0 -12 7 -28 15 -36 11 -12 12 -16 2 -20 -9 -3
-8 -9 4 -23 15 -17 32 -116 32 -186 0 -16 3 -28 8 -28 4 0 10 -19 14 -42 3
-24 13 -77 20 -118 8 -41 17 -100 19 -131 3 -31 9 -67 14 -80 5 -13 8 -43 7
-66 0 -24 2 -37 7 -30 4 6 8 10 8 7 0 -3 3 -45 5 -94 3 -48 10 -96 15 -106 5
-10 7 -32 4 -49 -4 -17 -2 -37 4 -43 6 -7 13 -51 16 -98 10 -136 12 -152 30
-215 10 -33 15 -70 13 -83 -5 -28 12 -114 21 -108 4 2 8 -26 10 -62 4 -100 8
-130 19 -144 6 -7 11 -29 11 -49 1 -20 6 -56 12 -80 6 -24 12 -83 15 -131 2
-48 9 -97 15 -107 5 -11 10 -40 10 -65 0 -25 4 -48 10 -51 5 -3 10 -23 10 -43
0 -20 1 -58 2 -84 0 -30 6 -49 14 -52 10 -4 12 -17 9 -42 -2 -20 -1 -42 3 -48
4 -6 7 -20 8 -31 1 -11 3 -38 4 -60 1 -22 6 -80 11 -130 12 -126 21 -246 25
-340 2 -44 9 -118 14 -165 6 -47 12 -98 14 -115 2 -16 4 -32 6 -35 4 -7 7 -34
15 -145 4 -55 9 -113 11 -130 2 -16 6 -68 8 -115 7 -132 16 -222 26 -255 5
-16 12 -95 15 -175 14 -363 23 -527 30 -547 4 -14 3 -23 -3 -23 -6 0 -7 -14
-1 -41 5 -22 11 -127 13 -232 4 -186 13 -327 22 -356 3 -8 7 -60 10 -115 5
-108 10 -168 13 -176 1 -3 5 -41 8 -85 3 -44 9 -83 14 -86 6 -3 11 -33 12 -67
1 -34 4 -62 8 -62 4 0 8 -21 7 -47 0 -27 2 -64 5 -83 3 -19 2 -39 -3 -45 -4
-5 -16 -43 -25 -83 -10 -40 -21 -75 -25 -77 -10 -6 -66 66 -73 95 -3 14 -27
46 -52 72 -25 26 -45 50 -45 53 0 3 -11 18 -25 33 -14 15 -25 34 -25 44 0 26
-28 48 -62 48 -17 0 -40 8 -50 17 -14 13 -21 14 -30 5 -7 -7 -20 -12 -29 -12
-10 0 -24 -9 -32 -20 -10 -14 -28 -20 -68 -23 -43 -3 -54 -7 -53 -20 1 -9 -4
-17 -11 -17 -6 0 -17 -11 -23 -25 -7 -14 -19 -28 -27 -31 -8 -4 -15 -12 -15
-20 0 -8 -10 -25 -22 -40 -13 -14 -23 -29 -23 -32 0 -20 -29 -92 -37 -92 -5 0
-6 -5 -3 -11 8 -12 -14 -69 -26 -69 -5 0 -9 -8 -9 -18 0 -10 -6 -26 -14 -37
-7 -11 -17 -36 -21 -55 -4 -19 -18 -52 -32 -73 -14 -22 -22 -46 -18 -56 3 -12
0 -21 -10 -25 -8 -3 -15 -16 -15 -29 0 -22 -30 -72 -53 -88 -4 -3 -7 -10 -5
-15 1 -5 -3 -19 -10 -32 -7 -12 -22 -51 -33 -85 -11 -34 -35 -87 -54 -119 -19
-31 -35 -60 -35 -64 0 -18 -44 -96 -56 -101 -8 -3 -14 -11 -14 -19 0 -24 -57
-119 -119 -200 -34 -44 -61 -87 -61 -96 0 -9 -7 -21 -16 -26 -12 -6 -15 -18
-12 -36 3 -14 1 -26 -4 -26 -6 0 -8 -14 -4 -34 4 -19 2 -37 -3 -40 -5 -3 -12
-24 -16 -47 -10 -58 -53 -178 -91 -252 -8 -16 -14 -39 -14 -51 0 -13 -9 -33
-19 -45 -11 -13 -23 -37 -27 -54 -3 -18 -13 -41 -20 -52 -8 -11 -14 -26 -14
-35 0 -8 -12 -37 -25 -65 -14 -27 -25 -58 -25 -67 0 -10 -4 -18 -9 -18 -5 0
-12 -18 -16 -41 -4 -22 -13 -53 -21 -67 -8 -15 -14 -37 -14 -48 0 -12 -7 -27
-15 -34 -8 -7 -15 -21 -15 -32 0 -10 -7 -21 -15 -24 -8 -4 -15 -12 -15 -20 0
-8 -5 -14 -11 -14 -6 0 -9 -9 -6 -20 6 -23 -22 -120 -35 -120 -9 0 -9 -86 0
-115 4 -11 13 -20 21 -20 7 0 22 -16 32 -35 12 -22 29 -37 47 -42 15 -3 42
-12 61 -20 27 -10 35 -10 38 0 3 6 16 12 29 12 14 0 35 5 47 11 12 7 39 13 62
15 22 2 68 5 103 8 35 2 79 12 99 21 l36 17 -8 52 c-4 28 -7 66 -7 84 1 44 49
197 66 211 8 7 17 28 21 49 4 20 10 42 14 47 11 15 31 89 31 117 0 13 8 42 19
64 10 21 27 64 37 94 9 30 23 69 30 85 6 17 17 47 24 68 7 22 18 51 26 65 8
15 14 34 14 42 0 19 24 87 33 96 4 4 7 15 7 24 0 9 11 37 24 62 13 24 27 55
31 68 12 39 178 410 196 440 5 8 12 24 16 35 4 10 26 58 50 106 24 48 43 92
43 97 0 5 9 17 20 27 11 10 20 24 20 32 0 20 23 16 38 -7 7 -11 18 -20 25 -20
7 0 23 -11 35 -25 12 -14 27 -25 33 -25 5 0 7 -5 4 -10 -4 -6 -1 -17 5 -25 7
-8 10 -21 7 -29 -3 -8 1 -20 9 -26 8 -7 14 -23 14 -36 0 -13 8 -45 19 -71 10
-26 21 -65 25 -85 4 -20 15 -56 26 -80 10 -24 22 -68 26 -98 4 -34 10 -48 13
-37 4 12 12 -11 20 -57 10 -53 18 -76 28 -76 8 0 11 -5 8 -10 -6 -9 12 -83 33
-140 3 -8 4 -24 3 -34 -3 -24 30 -128 44 -138 6 -5 4 -8 -5 -8 -13 -1 -13 -2
1 -13 10 -7 19 -36 23 -75 5 -41 14 -70 26 -82 12 -12 16 -26 13 -40 -3 -13 0
-25 7 -30 8 -5 13 -25 12 -54 -1 -25 2 -46 7 -46 5 0 11 -17 14 -37 4 -38 17
-76 45 -143 9 -19 17 -46 18 -60 5 -44 17 -95 23 -100 8 -6 51 -140 51 -157 0
-7 4 -13 9 -13 5 0 12 -13 16 -30 4 -17 10 -30 15 -30 4 0 10 -9 13 -20 3 -12
14 -20 26 -20 12 0 21 -5 21 -11 0 -5 8 -9 18 -7 21 3 52 -18 52 -35 0 -6 14
-25 31 -43 30 -31 31 -36 35 -131 5 -121 23 -225 41 -238 16 -12 7 -49 -9 -39
-12 8 -2 -264 11 -280 5 -6 10 -83 11 -171 0 -87 5 -178 10 -201 6 -24 7 -51
4 -61 -5 -15 -4 -16 5 -3 9 12 11 7 6 -20 -10 -59 -13 -374 -4 -385 7 -10 10
-50 8 -125 -2 -48 9 -215 15 -240 3 -14 8 -70 11 -125 3 -55 7 -125 10 -155 2
-30 7 -101 9 -157 3 -57 8 -108 12 -115 4 -7 7 -46 6 -88 -2 -41 2 -100 8
-130 6 -30 13 -125 17 -210 3 -85 9 -157 12 -160 4 -3 7 -77 8 -165 0 -88 3
-198 7 -245 3 -47 9 -170 13 -275 4 -120 10 -193 17 -197 8 -6 7 -11 -3 -17
-11 -7 -12 -39 -7 -167 16 -389 20 -607 11 -644 -5 -22 -4 -23 5 -5 9 16 9 14
5 -14 -3 -19 -1 -39 5 -45 18 -23 9 -133 -12 -147 -5 -3 -5 -24 1 -50 5 -24 9
-142 7 -262 -1 -192 3 -255 16 -216 2 7 3 -12 3 -42 -1 -30 -5 -62 -10 -73 -5
-11 -3 -21 4 -25 6 -4 12 -35 14 -68 2 -52 0 -60 -12 -50 -12 10 -13 9 -8 -6
4 -10 7 -39 7 -64 0 -26 3 -43 7 -40 3 4 12 -5 20 -19 16 -32 17 -48 1 -38 -6
4 -9 3 -6 -2 3 -5 2 -47 -2 -94 -5 -56 -4 -92 3 -105 6 -11 11 -87 13 -171 1
-84 5 -158 10 -165 11 -17 12 -119 2 -112 -13 7 -9 -23 6 -51 10 -19 13 -66
12 -174 -1 -81 1 -133 4 -117 4 17 7 -17 8 -75 1 -58 8 -161 17 -230 8 -69 17
-156 20 -194 3 -38 8 -73 11 -78 3 -4 7 -47 10 -96 3 -48 8 -94 11 -102 2 -8
11 -94 19 -190 22 -282 39 -392 89 -570 8 -30 15 -64 15 -77 0 -26 21 -107 46
-178 9 -27 18 -66 19 -85 1 -19 11 -82 22 -140 12 -58 27 -139 33 -180 10 -70
31 -149 50 -195 5 -11 11 -31 14 -45 11 -51 68 -216 88 -255 12 -22 33 -56 48
-75 15 -19 33 -48 41 -65 15 -31 92 -77 116 -68 7 3 27 -2 44 -11 18 -9 41
-14 51 -10 11 3 27 -1 37 -10 25 -23 53 -11 45 20 -6 24 -5 24 65 24 57 0 71
3 71 15 0 13 4 12 22 -5 27 -25 38 -25 38 0 0 11 5 20 11 20 6 0 8 -9 4 -22
-4 -14 -3 -18 2 -11 5 7 22 11 38 10 28 -2 30 0 28 34 -2 29 2 38 20 46 18 9
25 27 41 110 22 116 23 113 -54 353 -73 232 -88 286 -106 389 -8 52 -19 104
-24 116 -5 13 -18 74 -30 136 -11 63 -30 148 -41 189 -42 154 -101 396 -101
410 0 8 -4 42 -10 75 -10 66 -15 110 -22 200 -3 33 -9 96 -15 140 -6 43 -8 87
-5 97 3 10 1 42 -5 71 -6 28 -13 75 -15 102 -5 54 -25 244 -30 285 -2 14 -9
63 -16 110 -6 47 -14 117 -15 155 -3 62 -19 241 -29 335 -2 19 -9 111 -16 204
-10 153 -15 235 -26 446 -1 36 -7 97 -13 135 -19 128 -39 741 -46 1400 -2 226
-9 511 -15 635 -5 124 -11 268 -13 320 -7 195 -29 506 -38 522 -5 10 -9 37 -9
60 0 24 -5 61 -10 83 -6 22 -12 105 -15 185 -4 80 -10 165 -15 190 -5 25 -11
83 -15 130 -3 47 -10 114 -15 150 -5 36 -12 117 -14 180 -3 63 -8 124 -10 135
-3 11 -8 128 -10 260 -3 132 -8 258 -11 280 -2 22 -7 101 -11 175 -3 74 -7
155 -9 180 -2 25 -4 91 -5 146 -2 92 -9 160 -39 364 -5 36 -12 115 -15 175 -3
61 -11 139 -16 175 -6 36 -12 103 -15 150 -3 47 -11 114 -17 150 -6 36 -13
106 -14 155 -1 50 -7 160 -14 246 -12 163 -10 226 9 272 6 16 11 35 11 43 0 8
8 29 17 47 9 18 18 42 19 55 2 13 12 42 23 66 12 23 21 47 21 52 0 10 11 33
106 226 37 76 72 138 78 138 9 0 106 -104 155 -166 12 -14 31 -84 24 -84 -3 0
1 -7 8 -16 16 -20 39 -82 39 -109 0 -17 2 -18 11 -5 9 12 10 10 5 -9 -3 -14 1
-30 10 -38 8 -8 14 -27 14 -43 0 -16 4 -31 9 -34 5 -3 12 -23 16 -43 8 -43 53
-189 66 -215 5 -10 9 -25 9 -33 0 -8 4 -23 9 -33 25 -50 32 -71 30 -88 -2 -10
3 -30 11 -44 21 -37 49 -122 50 -148 0 -13 9 -32 20 -44 11 -12 20 -32 20 -44
0 -13 4 -25 9 -29 5 -3 13 -20 16 -37 11 -49 49 -128 61 -128 7 0 15 -16 18
-35 4 -19 13 -35 20 -35 7 0 20 -15 29 -34 9 -19 24 -44 34 -56 10 -12 26 -31
35 -42 10 -11 20 -29 23 -39 4 -11 12 -19 19 -19 6 0 18 -16 25 -35 7 -19 19
-35 27 -35 8 0 14 -6 14 -13 0 -18 46 -60 58 -53 6 3 13 -5 16 -19 4 -14 11
-25 16 -25 5 0 21 -12 36 -27 15 -15 39 -28 53 -29 14 -2 29 -3 33 -3 3 -1 19
-12 35 -25 30 -25 90 -27 105 -3 5 8 34 11 88 11 63 -1 80 1 80 13 0 8 20 32
44 54 l43 40 7 114 c8 130 11 124 -84 225 -28 30 -70 82 -92 115 -22 33 -51
71 -63 85 -12 14 -41 66 -64 115 -23 50 -46 97 -51 105 -27 41 -155 333 -212
485 -52 135 -59 156 -70 200 -5 22 -27 85 -49 140 -21 55 -39 104 -39 109 0 5
-27 64 -60 132 -33 67 -60 127 -60 132 0 17 -63 146 -92 189 -15 23 -28 44
-28 48 0 14 -67 103 -125 167 -80 88 -85 95 -85 112 0 8 -4 18 -10 21 -5 3
-10 16 -10 29 0 31 -27 52 -75 61 -73 12 -110 9 -151 -12 -24 -12 -51 -19 -66
-16 -14 3 -29 0 -32 -6 -4 -6 -26 -11 -49 -11 -54 -1 -74 -17 -109 -90 -7 -14
-18 -29 -25 -33 -7 -4 -13 -14 -13 -20 0 -7 -34 -48 -76 -92 -95 -100 -123
-105 -124 -20 0 22 -7 61 -14 87 -8 25 -12 48 -9 51 2 3 0 29 -6 59 -10 47
-35 207 -60 388 -6 36 -17 112 -26 170 -9 58 -20 141 -25 185 -4 44 -12 107
-18 140 -6 33 -13 105 -17 160 -3 55 -13 135 -21 178 -12 62 -13 81 -3 93 9
11 9 24 1 52 -6 20 -13 66 -16 102 -2 35 -9 66 -14 68 -10 3 -6 149 6 181 4
13 4 53 -1 90 -17 128 -28 328 -26 499 0 61 -4 109 -11 116 -6 8 -12 79 -15
168 -2 86 -9 168 -15 184 -6 16 -13 72 -16 124 -5 108 -7 135 -23 310 -6 69
-15 181 -20 250 -6 69 -17 186 -26 260 -8 74 -22 203 -30 285 -20 211 -41 375
-54 421 -6 21 -15 77 -21 124 -14 122 -18 149 -25 160 -3 5 -10 39 -15 77 -13
93 -24 163 -55 338 -15 83 -33 202 -41 265 -7 63 -21 153 -29 200 -9 47 -18
114 -20 150 -4 71 -26 234 -51 375 -34 196 -66 362 -77 400 -6 22 -12 49 -13
60 -4 49 -28 156 -50 225 -14 41 -32 109 -40 150 -9 41 -27 116 -41 165 -14
50 -32 115 -41 145 -8 30 -18 60 -22 65 -12 18 -58 179 -86 295 -24 103 -47
171 -75 223 -5 10 -16 55 -25 100 -16 87 -29 132 -51 184 -7 17 -13 37 -13 45
0 7 -9 38 -21 68 -11 30 -28 78 -36 105 -8 28 -23 69 -34 92 -10 24 -19 48
-19 53 0 6 -9 30 -20 52 -11 23 -20 49 -20 58 0 9 -5 21 -11 27 -6 6 -15 30
-20 54 -6 24 -20 60 -33 79 -12 19 -26 51 -30 70 -3 19 -24 61 -45 95 -22 33
-43 77 -47 99 -3 21 -19 52 -34 70 -15 17 -37 58 -51 91 -13 33 -31 71 -41 84
-10 13 -18 28 -18 33 0 5 -13 29 -30 53 -16 24 -30 53 -30 65 0 11 -7 23 -15
26 -8 3 -32 40 -55 81 -22 41 -55 94 -73 116 -19 23 -44 59 -56 80 -13 21 -29
44 -37 52 -8 7 -23 34 -34 59 -10 25 -23 46 -27 46 -5 0 -15 14 -22 32 -8 18
-29 47 -48 65 -18 18 -36 46 -39 61 -11 48 -170 270 -274 383 -19 21 -40 44
-46 51 -6 7 -20 21 -30 30 -11 10 -30 32 -44 49 -47 58 -70 84 -158 178 -135
146 -272 280 -293 286 -10 4 -19 13 -19 22 0 18 -112 133 -129 133 -6 0 -11 4
-11 9 0 5 -51 63 -112 127 -173 180 -230 234 -246 234 -4 0 -32 25 -62 56 -30
31 -73 70 -95 86 -55 40 -104 82 -181 156 -37 34 -70 62 -74 62 -5 0 -11 8
-15 18 -3 9 -22 28 -41 42 -20 14 -45 34 -55 45 -39 41 -49 51 -77 77 -88 81
-173 149 -253 202 -20 13 -42 30 -50 38 -8 8 -32 27 -54 43 -22 16 -54 43 -71
60 -17 16 -64 56 -105 88 -41 31 -108 84 -149 117 -41 34 -97 72 -125 86 -65
32 -83 43 -123 77 -18 15 -38 24 -44 21 -7 -4 -8 -2 -4 5 4 6 0 14 -11 18 -10
4 -36 20 -58 35 -22 16 -56 39 -75 52 -19 13 -45 33 -57 45 -12 12 -27 21 -33
21 -5 0 -27 16 -49 35 -21 19 -42 35 -47 35 -5 0 -36 21 -69 45 -33 25 -77 51
-97 57 -21 6 -38 15 -38 19 0 5 -24 21 -52 35 -29 15 -55 29 -58 33 -8 10 -88
51 -99 51 -5 0 -22 11 -37 25 -15 14 -32 25 -38 25 -6 0 -22 12 -35 25 -13 14
-29 25 -37 25 -8 0 -14 5 -14 10 0 6 -9 10 -20 10 -17 0 -73 27 -105 49 -5 4
-32 16 -60 26 -27 10 -57 24 -66 31 -8 8 -23 14 -32 14 -9 0 -17 3 -17 8 0 9
-43 31 -190 100 -58 27 -121 56 -140 65 -40 19 -70 45 -86 72 -6 11 -36 34
-67 50 -51 27 -95 62 -122 97 -79 102 -187 218 -203 218 -4 0 -29 25 -55 55
-27 30 -54 55 -62 55 -7 0 -15 3 -17 8 -1 4 -23 20 -48 37 -25 16 -49 36 -53
42 -4 7 -16 13 -26 13 -11 0 -33 14 -51 30 -18 17 -34 30 -36 30 -3 0 -29 18
-58 40 -29 22 -58 40 -64 40 -7 0 -12 4 -12 9 0 14 -131 111 -150 111 -9 0
-25 9 -35 20 -10 11 -24 20 -30 20 -7 0 -28 14 -46 32 -43 40 -89 68 -111 68
-10 0 -18 4 -18 9 0 5 -29 20 -65 33 -36 12 -65 26 -65 30 0 5 -14 8 -30 8
-17 0 -38 4 -48 9 -80 44 -166 81 -186 81 -14 0 -28 4 -31 10 -3 5 -19 7 -34
4 -18 -4 -38 0 -55 11 -15 10 -37 15 -51 13 -14 -3 -28 -1 -31 4 -4 6 -9 5
-14 -2 -5 -8 -13 -9 -26 -2 -25 12 -342 14 -349 1z m290 -329 c3 -5 17 -10 31
-10 13 0 24 -4 24 -10 0 -5 13 -10 29 -10 16 0 36 -7 45 -15 8 -8 24 -15 36
-15 11 0 30 -9 42 -20 12 -11 30 -20 40 -20 10 0 27 -9 38 -20 11 -11 29 -20
40 -20 11 0 37 -18 59 -40 21 -22 44 -40 50 -40 5 0 8 -6 5 -13 -2 -7 8 -22
24 -34 19 -14 34 -39 43 -67 7 -25 17 -46 21 -46 4 0 8 -14 8 -31 l0 -32 -87
8 c-49 5 -111 9 -139 10 -29 0 -58 6 -66 13 -14 11 -106 11 -125 -1 -5 -3 -22
0 -37 8 -15 8 -58 15 -99 15 -109 1 -180 6 -199 15 -10 4 -25 5 -33 1 -8 -3
-15 0 -15 6 0 7 -6 3 -14 -8 -14 -18 -15 -18 -21 -1 -7 17 -35 24 -35 9 0 -14
-42 -11 -65 4 -19 12 -31 13 -61 5 -45 -12 -57 -1 -48 42 15 73 141 266 164
252 6 -4 19 0 28 8 16 13 46 28 67 32 6 1 12 3 15 5 3 1 28 4 55 6 40 2 101
11 167 23 4 0 10 -3 13 -9z m6505 -5490 c0 -5 -5 -10 -11 -10 -5 0 -7 5 -4 10
3 6 8 10 11 10 2 0 4 -4 4 -10z m-9065 -1921 c69 -7 125 -16 125 -19 0 -4 19
-10 43 -14 62 -10 70 -12 87 -18 14 -6 114 -30 173 -43 15 -3 27 -10 27 -15 0
-6 14 -10 30 -10 17 0 38 -4 48 -9 28 -15 105 -48 131 -56 13 -4 47 -21 75
-37 28 -17 62 -34 76 -39 51 -16 141 -56 158 -71 9 -8 36 -26 60 -38 23 -13
42 -27 42 -32 0 -4 5 -8 10 -8 9 0 89 -50 125 -78 6 -4 35 -25 65 -47 30 -22
59 -46 64 -53 4 -8 24 -20 43 -28 19 -8 42 -28 51 -44 9 -17 21 -30 26 -30 11
0 180 -171 231 -235 22 -27 55 -65 73 -84 17 -19 32 -40 32 -48 0 -7 18 -29
40 -49 22 -20 40 -40 40 -45 0 -5 14 -22 30 -37 17 -16 30 -35 30 -43 0 -8 9
-25 20 -39 11 -14 20 -33 20 -42 0 -10 4 -18 10 -18 5 0 19 -18 30 -40 11 -22
25 -40 30 -40 6 0 10 -8 10 -17 0 -25 42 -105 63 -121 9 -7 17 -21 18 -30 0
-9 9 -30 20 -47 10 -16 28 -50 39 -75 11 -25 27 -57 35 -72 8 -14 15 -36 15
-47 0 -12 7 -24 15 -27 8 -4 15 -14 15 -24 0 -11 4 -21 9 -24 4 -3 11 -19 15
-36 3 -17 22 -66 42 -108 19 -42 39 -86 43 -97 24 -60 94 -276 102 -314 11
-53 27 -104 45 -146 7 -16 16 -51 19 -77 3 -26 10 -50 15 -53 5 -3 12 -30 15
-60 4 -31 11 -58 16 -61 5 -3 9 -20 9 -39 0 -19 5 -37 10 -40 6 -3 10 -16 10
-27 0 -12 4 -35 9 -52 34 -110 46 -163 67 -291 3 -22 12 -47 20 -56 10 -11 11
-18 2 -27 -8 -8 -5 -24 11 -62 12 -28 20 -54 17 -59 -3 -4 -1 -23 5 -42 5 -19
12 -45 14 -59 7 -49 36 -195 45 -230 5 -19 12 -73 15 -120 4 -47 9 -107 11
-135 12 -122 5 -616 -11 -785 -9 -96 -18 -195 -20 -220 -2 -25 -8 -85 -14
-135 -5 -49 -15 -137 -22 -195 -6 -58 -20 -127 -30 -153 -11 -26 -19 -57 -19
-67 0 -11 -9 -39 -19 -63 -10 -23 -29 -69 -42 -102 -13 -33 -28 -67 -35 -75
-6 -8 -21 -33 -33 -55 -18 -34 -44 -70 -104 -145 -7 -8 -25 -32 -41 -52 -76
-100 -474 -419 -608 -487 -16 -8 -28 -18 -28 -23 0 -4 -6 -8 -12 -8 -7 0 -41
-18 -76 -40 -34 -22 -66 -40 -70 -40 -3 0 -33 -13 -67 -30 -33 -16 -91 -44
-130 -62 -38 -17 -81 -39 -95 -48 -14 -9 -50 -24 -80 -34 -30 -10 -78 -29
-106 -42 -28 -13 -86 -33 -128 -44 -42 -11 -81 -22 -86 -25 -9 -5 -129 -29
-230 -46 -182 -29 -593 -45 -767 -30 -130 12 -276 29 -306 36 -12 2 -89 18
-172 35 -174 35 -364 87 -442 120 -13 6 -33 14 -45 19 -13 5 -39 16 -60 25
-20 9 -42 16 -50 16 -7 0 -28 9 -46 20 -18 11 -38 20 -45 20 -7 0 -28 11 -47
25 -19 14 -42 25 -51 25 -9 0 -39 18 -65 40 -27 22 -54 40 -61 40 -7 0 -13 4
-13 8 0 7 -31 30 -117 87 -64 42 -225 204 -254 255 -11 19 -33 53 -49 75 -17
22 -39 58 -50 80 -11 22 -25 47 -30 55 -18 29 -80 164 -80 174 0 6 -23 63 -51
126 -28 63 -54 135 -59 160 -12 68 -60 230 -81 278 -10 23 -19 55 -19 70 0 29
-24 132 -39 167 -20 47 -32 98 -36 145 -2 27 -8 64 -14 82 -16 49 -49 179 -76
303 -14 61 -31 133 -39 160 -8 28 -19 82 -26 120 -6 39 -18 102 -26 140 -8 39
-17 106 -19 150 -2 44 -9 100 -15 125 -6 25 -17 122 -24 215 -15 184 -32 348
-46 435 -13 84 -4 698 10 715 6 8 14 38 17 67 3 29 10 55 15 57 6 2 5 7 -2 11
-11 7 -10 12 2 24 9 9 19 34 23 56 4 22 10 40 15 40 10 0 34 59 33 81 -1 10 5
23 13 30 8 6 14 17 14 24 0 21 26 65 34 58 4 -4 5 -1 2 7 -8 19 9 76 21 73 5
-1 8 15 6 35 -2 20 0 31 3 24 9 -19 24 -4 24 24 0 13 3 24 8 24 8 0 32 64 36
100 2 14 4 30 5 35 1 6 5 4 10 -4 7 -10 11 0 17 34 4 27 13 56 21 63 8 8 17
28 20 44 4 21 8 26 14 16 7 -10 9 -9 9 4 0 9 11 30 25 46 14 17 25 34 25 38 0
5 12 17 26 28 20 14 37 17 74 13 37 -4 50 -2 54 9 3 8 12 14 21 14 36 0 115
63 115 92 0 11 5 16 10 13 6 -3 14 5 19 18 6 14 16 28 23 31 9 4 10 8 2 11 -8
4 0 25 23 60 39 59 64 73 146 78 27 1 52 9 57 16 5 8 18 12 34 9 14 -3 26 -2
26 1 0 4 15 15 33 26 17 10 39 27 48 37 9 10 21 18 26 18 11 0 23 47 23 84 -1
34 -51 121 -98 170 l-43 45 13 67 c6 36 18 68 25 71 7 3 13 11 13 18 0 7 3 15
8 17 4 2 30 30 57 63 28 33 89 100 138 148 48 49 87 93 87 98 0 5 5 9 11 9 7
0 37 20 67 45 30 25 59 45 64 45 5 0 7 4 4 9 -3 4 14 16 37 26 23 10 51 26 62
35 11 9 47 25 80 35 33 10 63 23 67 28 4 7 12 6 22 -2 11 -10 20 -10 29 -3 10
9 82 27 97 24 3 0 12 6 21 14 11 10 47 17 105 20 49 3 90 7 91 8 7 7 341 -4
448 -15z m-5894 -231 c35 -11 66 -24 69 -27 3 -3 32 -15 65 -25 33 -10 87 -32
121 -47 33 -16 64 -29 68 -29 4 0 22 -10 39 -22 17 -12 70 -41 117 -64 47 -23
92 -49 99 -58 7 -9 20 -16 27 -16 18 0 55 -21 69 -38 10 -13 40 -32 80 -51 11
-5 45 -34 75 -65 30 -31 60 -56 66 -56 7 0 35 -26 63 -57 28 -32 64 -67 81
-78 16 -11 30 -23 30 -28 0 -4 21 -29 46 -55 76 -78 89 -94 87 -102 -3 -10 50
-60 79 -74 13 -6 24 -22 26 -34 2 -12 10 -22 18 -22 8 0 14 -10 14 -22 0 -18
2 -20 10 -8 8 13 10 13 14 0 3 -8 6 -24 8 -35 2 -11 9 -21 16 -21 6 -1 17 -2
22 -3 6 0 10 -9 10 -18 1 -23 23 -53 40 -53 7 0 10 -7 6 -17 -4 -10 -4 -14 0
-11 6 7 15 -2 89 -85 63 -70 72 -83 100 -134 14 -26 25 -43 25 -38 0 5 16 -14
35 -42 19 -28 39 -54 45 -58 5 -3 10 -16 10 -29 0 -12 17 -38 40 -61 22 -21
40 -45 40 -52 0 -7 11 -23 25 -35 23 -20 58 -72 107 -160 9 -16 24 -38 33 -48
9 -10 32 -49 51 -86 18 -37 40 -74 47 -83 22 -25 151 -279 176 -345 12 -32 30
-77 40 -100 10 -22 39 -97 65 -166 26 -69 52 -134 56 -145 29 -65 67 -226 95
-395 8 -47 17 -94 20 -105 15 -48 47 -416 49 -560 1 -78 -12 -284 -19 -295 -2
-3 -6 -51 -9 -105 -12 -206 -25 -332 -40 -400 -9 -38 -21 -99 -26 -135 -31
-215 -75 -421 -122 -570 -26 -83 -69 -278 -68 -311 1 -45 -28 -119 -74 -191
-43 -68 -228 -257 -316 -324 -85 -64 -99 -75 -123 -98 -46 -44 -149 -116 -158
-111 -5 4 -12 -1 -15 -9 -3 -9 -21 -25 -40 -37 -19 -11 -40 -26 -47 -33 -6 -7
-39 -29 -72 -50 -33 -21 -76 -55 -95 -76 -19 -21 -68 -65 -109 -99 -41 -34
-117 -102 -170 -151 -53 -49 -114 -102 -136 -118 -22 -16 -46 -36 -54 -45 -33
-41 -162 -94 -381 -156 -58 -17 -132 -40 -165 -52 -33 -12 -98 -30 -145 -39
-47 -10 -105 -23 -130 -29 -161 -41 -255 -61 -280 -61 -16 0 -67 -9 -113 -19
-160 -38 -596 -44 -772 -12 -33 6 -98 18 -145 27 -47 8 -116 21 -155 28 -38 7
-104 23 -145 35 -41 12 -93 27 -115 32 -38 10 -93 28 -210 69 -27 10 -69 23
-92 29 -24 7 -43 16 -43 22 0 6 -5 7 -11 3 -6 -3 -21 -2 -32 3 -51 22 -154 56
-174 57 -13 1 -23 4 -23 9 0 4 -9 7 -21 7 -11 0 -18 4 -15 8 3 5 -37 23 -87
41 -51 19 -94 37 -97 40 -3 4 -48 29 -102 55 -53 26 -118 62 -145 79 -27 18
-67 41 -88 52 -21 11 -58 39 -82 63 -24 23 -47 42 -52 42 -5 0 -13 9 -16 21
-4 11 -9 18 -12 15 -7 -7 -33 19 -33 33 0 6 -7 8 -15 5 -9 -4 -19 4 -27 23 -7
15 -28 41 -45 57 -18 16 -33 36 -33 43 0 7 -9 21 -20 30 -11 10 -20 21 -20 26
0 5 -16 27 -35 50 -19 22 -35 46 -35 52 0 6 -15 27 -33 47 -18 20 -31 41 -29
47 2 6 -8 22 -22 36 -14 14 -22 25 -19 25 4 0 2 5 -5 12 -7 7 -12 20 -12 29 0
9 -6 22 -14 29 -8 6 -16 26 -18 43 -2 19 -8 31 -15 30 -7 -2 -13 2 -13 7 0 6
-9 30 -20 52 -11 23 -20 52 -20 64 0 12 -7 27 -15 34 -8 7 -15 21 -15 31 0 10
-10 35 -21 56 -12 21 -23 45 -24 53 -1 16 -10 37 -55 141 -17 37 -30 74 -30
83 0 8 -4 17 -10 21 -5 3 -17 30 -26 60 -10 30 -21 55 -26 55 -4 0 -8 13 -8
29 0 17 -4 32 -9 35 -5 3 -14 26 -20 51 -6 25 -16 45 -21 45 -6 0 -10 9 -10
20 0 19 -41 115 -81 191 -10 20 -19 46 -19 57 0 11 -12 46 -26 78 -31 71 -50
127 -58 177 -4 20 -11 37 -15 37 -5 0 -12 21 -16 47 -4 25 -13 56 -20 67 -7
12 -21 52 -31 91 -9 38 -23 75 -31 80 -8 6 -15 17 -17 25 -13 70 -19 90 -27
90 -5 0 -9 7 -9 15 0 17 -25 77 -89 215 -16 36 -41 101 -55 145 -15 44 -30 89
-35 100 -21 45 -34 169 -35 320 0 88 3 172 7 186 4 17 20 32 45 43 37 17 38
17 85 -9 61 -35 115 -37 135 -7 8 12 21 22 29 22 8 0 12 4 9 8 -3 5 35 48 85
96 90 87 91 87 91 136 -1 44 3 52 37 83 21 19 57 42 79 53 23 10 42 21 42 26
0 4 8 17 18 27 39 42 62 73 62 83 0 5 23 32 51 59 37 36 50 55 46 69 -3 13 0
20 9 20 10 0 13 7 8 25 -3 14 -1 31 5 39 6 7 9 20 6 29 -6 15 41 57 64 57 6 0
11 5 11 10 0 6 9 10 19 10 24 0 72 56 65 75 -4 8 -17 15 -29 15 -13 0 -26 4
-30 10 -3 5 -28 21 -55 36 -36 20 -51 34 -55 55 -4 16 -11 31 -16 34 -5 4 -9
15 -9 25 0 17 -11 47 -43 117 -10 22 -2 93 11 93 4 0 13 12 19 28 7 15 23 38
35 52 13 14 35 44 50 67 27 40 81 106 156 188 20 22 53 60 73 85 63 80 419
421 430 414 5 -2 13 5 19 16 6 11 17 20 24 20 7 0 24 10 38 23 56 50 79 67 91
67 6 0 32 14 56 30 24 17 49 30 56 30 7 0 20 9 30 20 10 11 25 20 34 20 9 0
27 9 41 20 14 11 31 20 38 20 6 0 12 5 12 10 0 6 6 10 14 10 8 0 39 13 68 29
29 15 65 31 81 35 15 3 27 11 27 16 0 5 19 14 42 20 23 7 58 23 77 36 20 13
48 24 62 24 15 0 29 6 32 14 3 8 31 20 62 26 31 6 59 18 62 26 3 8 15 14 27
14 11 0 34 7 50 15 15 8 35 15 43 15 8 0 32 9 55 20 23 11 57 22 77 26 20 3
45 9 56 14 11 4 39 15 62 25 23 9 46 14 52 10 6 -3 14 1 17 9 3 9 14 16 24 16
10 0 25 6 32 13 13 13 36 21 101 34 15 3 27 9 27 13 0 4 27 13 59 19 33 6 61
15 63 20 2 5 62 11 133 15 177 9 254 17 261 27 3 5 22 9 43 9 79 0 156 65 216
183 38 75 51 86 125 111 42 13 170 5 231 -16z m4759 -7128 c0 -5 -5 -10 -11
-10 -5 0 -7 5 -4 10 3 6 8 10 11 10 2 0 4 -4 4 -10z m-4190 -4216 c19 -2 38
-8 43 -13 5 -5 23 -4 42 2 27 8 39 7 59 -6 14 -10 34 -17 44 -17 11 0 25 -7
32 -15 7 -8 21 -15 31 -15 10 0 22 -7 27 -15 4 -9 22 -23 40 -33 57 -31 116
-60 157 -77 22 -9 48 -20 57 -25 10 -6 25 -10 33 -10 8 0 15 -4 15 -9 0 -5 18
-12 40 -16 22 -4 40 -11 40 -16 0 -5 9 -9 19 -9 11 0 22 -4 25 -9 3 -5 36 -17
73 -26 38 -10 72 -22 78 -27 5 -4 21 -8 35 -8 15 0 44 -9 65 -19 22 -10 45
-16 53 -14 7 3 18 -2 25 -11 8 -11 32 -19 66 -21 30 -3 66 -13 80 -22 40 -27
119 -62 125 -56 3 3 23 -6 44 -21 33 -22 46 -26 80 -20 34 5 42 3 51 -15 7
-11 18 -21 27 -21 8 0 17 -6 20 -13 2 -7 18 -14 35 -15 17 -1 39 -7 49 -12 10
-6 28 -10 39 -10 11 0 25 -9 31 -20 6 -11 20 -20 30 -20 11 0 20 -4 20 -10 0
-5 7 -10 15 -10 8 0 15 5 15 10 0 6 11 3 25 -6 15 -10 25 -12 25 -5 0 20 15
11 32 -19 9 -17 25 -30 35 -30 10 -1 29 -7 43 -15 17 -9 29 -10 37 -3 16 13
84 -20 90 -43 6 -22 34 -34 44 -18 4 8 13 3 24 -15 25 -37 152 -92 130 -56 -4
6 5 10 20 10 20 0 27 -6 32 -30 3 -16 10 -30 15 -30 5 0 6 5 3 10 -15 24 19 7
49 -25 37 -39 52 -44 59 -17 3 10 5 6 6 -10 0 -16 6 -28 11 -28 6 0 21 -10 34
-22 23 -23 46 -34 46 -22 0 3 -7 12 -15 21 -23 22 -9 30 15 8 11 -10 20 -26
20 -36 0 -22 32 -57 38 -40 5 16 32 -6 32 -25 0 -8 4 -14 9 -14 5 0 22 -14 38
-30 27 -30 174 -130 190 -130 4 0 23 -19 42 -42 19 -24 70 -72 114 -108 44
-36 93 -80 111 -99 59 -63 81 -81 94 -76 17 6 40 -16 34 -33 -4 -13 25 -51
111 -142 29 -31 81 -89 117 -129 36 -40 76 -85 89 -100 13 -14 41 -54 63 -88
22 -35 43 -63 48 -63 4 0 10 -10 14 -22 3 -13 21 -40 41 -60 19 -20 35 -43 35
-50 0 -7 15 -30 34 -50 19 -20 40 -50 48 -65 161 -313 202 -410 267 -628 28
-94 82 -387 88 -472 5 -91 5 -92 -18 -97 -102 -24 -249 -47 -379 -61 -25 -3
-61 -7 -80 -11 -19 -3 -46 -5 -59 -5 -14 1 -52 -5 -85 -13 -34 -8 -86 -18
-116 -21 -30 -3 -91 -12 -135 -20 -207 -36 -362 -54 -505 -60 -353 -15 -477
-15 -756 1 -164 9 -380 18 -479 19 -99 2 -198 8 -220 14 -24 6 -113 9 -218 7
-98 -1 -180 1 -183 5 -2 5 -24 8 -48 7 -24 0 -48 2 -53 5 -12 8 -210 29 -293
32 -36 2 -90 8 -120 15 -30 6 -100 13 -155 16 -55 2 -113 6 -130 10 -16 3 -56
7 -88 9 -41 1 -61 7 -70 19 -9 13 -31 18 -83 21 -113 5 -224 17 -224 24 0 3
-39 7 -88 9 -53 2 -91 8 -97 15 -6 7 -28 11 -53 9 -31 -2 -44 1 -48 12 -7 19
-30 21 -37 4 -4 -10 -7 -10 -14 -1 -5 6 -29 14 -53 17 -52 6 -140 45 -140 63
0 23 -73 63 -115 64 -22 1 -32 3 -22 6 14 4 16 8 6 19 -6 8 -20 14 -30 14 -11
0 -19 5 -19 11 0 5 -4 8 -9 5 -5 -3 -20 3 -34 14 -14 11 -27 20 -30 20 -3 0
-19 14 -37 30 -18 17 -36 30 -41 30 -9 0 -44 27 -81 63 -10 9 -22 17 -28 17
-5 0 -13 6 -17 13 -4 7 -39 38 -78 69 -135 107 -285 283 -285 335 0 14 -5 23
-13 21 -18 -4 -54 35 -60 68 -14 70 -22 90 -44 114 -12 13 -23 35 -23 47 0 12
-4 25 -10 28 -5 3 -10 16 -10 27 0 12 -3 18 -7 14 -7 -7 -42 79 -47 116 -1 9
-7 22 -13 30 -6 7 -17 51 -24 98 -7 47 -16 87 -20 90 -3 3 -13 34 -22 70 -12
50 -15 102 -11 225 2 88 9 171 14 185 5 14 16 52 24 86 17 65 83 217 97 222 5
2 9 10 9 18 0 8 4 14 8 14 4 0 16 15 27 33 10 17 34 51 52 75 18 24 33 50 33
58 0 8 7 14 15 14 8 0 23 13 33 28 16 27 105 132 165 194 15 16 27 34 27 39 0
5 3 9 8 9 4 0 68 59 142 131 74 72 154 145 178 162 23 17 42 34 42 38 0 4 8
10 18 13 10 3 33 21 52 39 33 30 126 97 136 97 2 0 12 7 22 16 53 49 141 102
286 174 89 44 168 80 174 80 7 0 12 4 12 9 0 4 21 16 48 26 26 10 52 22 58 26
6 5 35 15 65 24 51 14 98 14 209 -1z m-2620 -1884 c0 -5 -4 -10 -10 -10 -5 0
-10 5 -10 10 0 6 5 10 10 10 6 0 10 -4 10 -10z m-23 -182 c-3 -8 -6 -5 -6 6
-1 11 2 17 5 13 3 -3 4 -12 1 -19z m7293 -593 c0 -16 -3 -14 -15 9 -8 15 -15
36 -15 45 1 23 29 -29 30 -54z m-7148 -159 c4 -17 1 -23 -9 -19 -14 5 -17 25
-6 36 9 10 10 9 15 -17z m7195 -38 c-3 -8 -6 -5 -6 6 -1 11 2 17 5 13 3 -3 4
-12 1 -19z m-6552 -768 c3 -5 1 -10 -4 -10 -6 0 -11 5 -11 10 0 6 2 10 4 10 3
0 8 -4 11 -10z m18422 -1232 c-3 -8 -6 -5 -6 6 -1 11 2 17 5 13 3 -3 4 -12 1
-19z"/>
<path d="M13400 23473 c-35 -12 -80 -34 -85 -43 -7 -11 -64 -40 -79 -40 -27
-1 -83 -68 -78 -92 1 -4 -12 -34 -28 -67 -17 -32 -30 -62 -30 -67 -1 -5 -9
-27 -20 -49 -11 -22 -20 -51 -20 -65 0 -14 -7 -45 -16 -70 -33 -95 -34 -256
-1 -245 7 2 29 -18 49 -44 47 -63 128 -104 205 -106 30 0 57 -5 61 -10 4 -6
30 -29 59 -53 38 -31 64 -44 98 -49 25 -3 48 -10 51 -14 9 -15 74 -10 111 8
19 9 45 32 58 52 31 50 86 91 121 91 8 0 29 13 45 30 17 16 46 37 65 46 38 18
129 103 157 147 10 16 21 52 23 80 3 29 8 59 11 67 4 8 8 22 9 30 1 8 7 29 12
47 8 25 7 35 -7 50 -9 10 -36 57 -60 105 -42 85 -74 121 -153 170 -29 19 -129
38 -201 38 -26 0 -66 9 -90 19 -23 10 -57 24 -76 30 -34 11 -163 14 -191 4z
m-210 -753 c8 -5 12 -11 10 -14 -3 -2 -14 2 -24 10 -22 15 -10 19 14 4z m40
-60 c0 -5 -2 -10 -4 -10 -3 0 -8 5 -11 10 -3 6 -1 10 4 10 6 0 11 -4 11 -10z"/>
<path d="M6740 23280 c-30 -10 -91 -34 -135 -54 -44 -20 -96 -36 -116 -36 -44
0 -116 -24 -144 -48 -11 -10 -38 -27 -60 -38 -44 -21 -129 -103 -150 -144 -8
-15 -21 -33 -30 -40 -20 -17 -55 -83 -68 -130 -14 -52 -32 -272 -29 -346 3
-58 7 -68 40 -103 21 -22 51 -43 67 -46 17 -4 48 -24 70 -45 22 -21 60 -50 85
-65 25 -15 48 -34 53 -41 4 -7 25 -13 47 -12 28 0 53 -8 80 -26 35 -23 51 -26
137 -28 86 -3 101 -1 119 17 12 11 53 49 91 85 38 36 90 84 116 107 26 23 47
51 47 62 0 11 5 23 10 26 6 3 10 19 10 35 0 16 7 41 15 57 8 15 17 45 20 65 4
28 21 53 65 98 33 34 60 70 60 81 0 10 4 19 9 19 10 0 24 80 22 130 -1 19 -2
79 -4 132 -2 93 -3 98 -34 133 -18 20 -33 39 -33 41 0 18 -135 111 -181 124
-50 14 -117 11 -179 -10z"/>
<path d="M6521 13584 c0 -11 3 -14 6 -6 3 7 2 16 -1 19 -3 4 -6 -2 -5 -13z"/>
<path d="M13163 34423 c9 -2 23 -2 30 0 6 3 -1 5 -18 5 -16 0 -22 -2 -12 -5z"/>
<path d="M23991 23864 c0 -11 3 -14 6 -6 3 7 2 16 -1 19 -3 4 -6 -2 -5 -13z"/>
<path d="M22497 17340 c3 -11 7 -20 9 -20 2 0 4 9 4 20 0 11 -4 20 -9 20 -5 0
-7 -9 -4 -20z"/>
<path d="M8661 16037 c-15 -15 -14 -27 3 -27 9 0 12 -8 8 -25 -6 -35 24 -34
32 1 8 32 -24 70 -43 51z"/>
<path d="M8758 15963 c-8 -10 -18 -25 -21 -34 -5 -16 -2 -16 34 -1 26 10 39
21 37 31 -5 23 -32 25 -50 4z"/>
<path d="M24901 12544 c0 -11 3 -14 6 -6 3 7 2 16 -1 19 -3 4 -6 -2 -5 -13z"/>
<path d="M8428 10963 c12 -2 30 -2 40 0 9 3 -1 5 -23 4 -22 0 -30 -2 -17 -4z"/>
</g>
</svg>
